<mxfile host="app.diagrams.net" modified="2024-05-01T00:58:40.790Z" agent="Mozilla/5.0 (Windows NT 10.0; Win64; x64) AppleWebKit/537.36 (KHTML, like Gecko) Chrome/124.0.0.0 Safari/537.36" etag="ujtwBLuYFNXqxYHwVD8M" version="24.3.0" type="google" pages="2">
  <diagram id="C5RBs43oDa-KdzZeNtuy" name="Diagrama Flujo">
    <mxGraphModel grid="1" page="1" gridSize="10" guides="1" tooltips="1" connect="1" arrows="1" fold="1" pageScale="1" pageWidth="827" pageHeight="1169" math="0" shadow="0">
      <root>
        <mxCell id="WIyWlLk6GJQsqaUBKTNV-0" />
        <mxCell id="WIyWlLk6GJQsqaUBKTNV-1" parent="WIyWlLk6GJQsqaUBKTNV-0" />
        <mxCell id="LAayai723NJFUMAzi0xS-28" style="edgeStyle=orthogonalEdgeStyle;rounded=0;orthogonalLoop=1;jettySize=auto;html=1;align=center;fontFamily=Helvetica;" edge="1" parent="WIyWlLk6GJQsqaUBKTNV-1" source="WIyWlLk6GJQsqaUBKTNV-3" target="LAayai723NJFUMAzi0xS-20">
          <mxGeometry relative="1" as="geometry" />
        </mxCell>
        <mxCell id="WIyWlLk6GJQsqaUBKTNV-3" value="Presentar Menu Inicial" style="rounded=1;whiteSpace=wrap;html=1;fontSize=12;glass=0;strokeWidth=1;shadow=0;align=center;horizontal=1;verticalAlign=middle;arcSize=0;fontFamily=Helvetica;" vertex="1" parent="WIyWlLk6GJQsqaUBKTNV-1">
          <mxGeometry x="300" y="-1060" width="140" height="40" as="geometry" />
        </mxCell>
        <mxCell id="LAayai723NJFUMAzi0xS-14" style="edgeStyle=orthogonalEdgeStyle;rounded=0;orthogonalLoop=1;jettySize=auto;html=1;align=center;fontFamily=Helvetica;" edge="1" parent="WIyWlLk6GJQsqaUBKTNV-1" source="LAayai723NJFUMAzi0xS-3">
          <mxGeometry relative="1" as="geometry">
            <mxPoint x="370" y="-1080" as="targetPoint" />
            <Array as="points">
              <mxPoint x="370" y="-640" />
              <mxPoint x="240" y="-640" />
              <mxPoint x="240" y="-1080" />
            </Array>
            <mxPoint x="320" y="-640" as="sourcePoint" />
          </mxGeometry>
        </mxCell>
        <mxCell id="LAayai723NJFUMAzi0xS-16" style="edgeStyle=orthogonalEdgeStyle;rounded=0;orthogonalLoop=1;jettySize=auto;html=1;align=center;fontFamily=Helvetica;" edge="1" parent="WIyWlLk6GJQsqaUBKTNV-1" source="LAayai723NJFUMAzi0xS-1" target="LAayai723NJFUMAzi0xS-7">
          <mxGeometry relative="1" as="geometry">
            <mxPoint x="380" y="-820" as="targetPoint" />
            <Array as="points" />
          </mxGeometry>
        </mxCell>
        <mxCell id="LAayai723NJFUMAzi0xS-1" value="Recolectar Criterios de Selección" style="rounded=0;whiteSpace=wrap;html=1;fontSize=12;glass=0;strokeWidth=1;shadow=0;align=center;horizontal=1;verticalAlign=middle;arcSize=0;fontFamily=Helvetica;" vertex="1" parent="WIyWlLk6GJQsqaUBKTNV-1">
          <mxGeometry x="300" y="-880" width="140" height="40" as="geometry" />
        </mxCell>
        <mxCell id="LAayai723NJFUMAzi0xS-3" value="Presentar Opciones" style="rounded=1;whiteSpace=wrap;html=1;fontSize=12;glass=0;strokeWidth=1;shadow=0;align=center;horizontal=1;verticalAlign=middle;arcSize=0;fontFamily=Helvetica;" vertex="1" parent="WIyWlLk6GJQsqaUBKTNV-1">
          <mxGeometry x="300" y="-740" width="140" height="40" as="geometry" />
        </mxCell>
        <mxCell id="LAayai723NJFUMAzi0xS-11" style="edgeStyle=orthogonalEdgeStyle;rounded=0;orthogonalLoop=1;jettySize=auto;html=1;align=center;fontFamily=Helvetica;" edge="1" parent="WIyWlLk6GJQsqaUBKTNV-1" source="LAayai723NJFUMAzi0xS-7" target="LAayai723NJFUMAzi0xS-3">
          <mxGeometry relative="1" as="geometry" />
        </mxCell>
        <mxCell id="LAayai723NJFUMAzi0xS-7" value="Buscar Opciones" style="rounded=1;whiteSpace=wrap;html=1;fontSize=12;glass=0;strokeWidth=2;shadow=0;align=center;horizontal=1;verticalAlign=middle;arcSize=0;strokeColor=#6c8ebf;fontFamily=Helvetica;fillColor=#dae8fc;" vertex="1" parent="WIyWlLk6GJQsqaUBKTNV-1">
          <mxGeometry x="300" y="-810" width="140" height="40" as="geometry" />
        </mxCell>
        <mxCell id="LAayai723NJFUMAzi0xS-9" value="" style="edgeStyle=orthogonalEdgeStyle;rounded=0;orthogonalLoop=1;jettySize=auto;html=1;align=center;fontFamily=Helvetica;" edge="1" parent="WIyWlLk6GJQsqaUBKTNV-1" source="LAayai723NJFUMAzi0xS-8" target="WIyWlLk6GJQsqaUBKTNV-3">
          <mxGeometry relative="1" as="geometry">
            <mxPoint x="374" y="-1060" as="targetPoint" />
            <Array as="points">
              <mxPoint x="370" y="-1090" />
              <mxPoint x="370" y="-1090" />
            </Array>
          </mxGeometry>
        </mxCell>
        <mxCell id="LAayai723NJFUMAzi0xS-8" value="Elegir qué Ver" style="rounded=1;whiteSpace=wrap;html=1;align=center;fontFamily=Helvetica;strokeWidth=2;fillColor=#d5e8d4;strokeColor=#82b366;" vertex="1" parent="WIyWlLk6GJQsqaUBKTNV-1">
          <mxGeometry x="302" y="-1140" width="140" height="40" as="geometry" />
        </mxCell>
        <mxCell id="LAayai723NJFUMAzi0xS-24" style="edgeStyle=orthogonalEdgeStyle;rounded=0;orthogonalLoop=1;jettySize=auto;html=1;align=center;fontFamily=Helvetica;" edge="1" parent="WIyWlLk6GJQsqaUBKTNV-1" source="LAayai723NJFUMAzi0xS-20" target="LAayai723NJFUMAzi0xS-23">
          <mxGeometry relative="1" as="geometry">
            <mxPoint x="398" y="-660" as="targetPoint" />
            <Array as="points">
              <mxPoint x="500" y="-960" />
              <mxPoint x="500" y="-600" />
              <mxPoint x="370" y="-600" />
            </Array>
            <mxPoint x="448" y="-1080" as="sourcePoint" />
          </mxGeometry>
        </mxCell>
        <mxCell id="LAayai723NJFUMAzi0xS-31" value="Sí" style="edgeLabel;html=1;align=center;verticalAlign=middle;resizable=0;points=[];fontFamily=Helvetica;" connectable="0" vertex="1" parent="LAayai723NJFUMAzi0xS-24">
          <mxGeometry x="-0.7627" y="-1" relative="1" as="geometry">
            <mxPoint as="offset" />
          </mxGeometry>
        </mxCell>
        <mxCell id="LAayai723NJFUMAzi0xS-29" style="edgeStyle=orthogonalEdgeStyle;rounded=0;orthogonalLoop=1;jettySize=auto;html=1;align=center;fontFamily=Helvetica;" edge="1" parent="WIyWlLk6GJQsqaUBKTNV-1" source="LAayai723NJFUMAzi0xS-20" target="LAayai723NJFUMAzi0xS-1">
          <mxGeometry relative="1" as="geometry" />
        </mxCell>
        <mxCell id="LAayai723NJFUMAzi0xS-30" value="No" style="edgeLabel;html=1;align=center;verticalAlign=middle;resizable=0;points=[];fontFamily=Helvetica;" connectable="0" vertex="1" parent="LAayai723NJFUMAzi0xS-29">
          <mxGeometry x="-0.35" y="1" relative="1" as="geometry">
            <mxPoint as="offset" />
          </mxGeometry>
        </mxCell>
        <mxCell id="LAayai723NJFUMAzi0xS-20" value="¿Salir?" style="rhombus;whiteSpace=wrap;html=1;shadow=0;fontFamily=Helvetica;fontSize=12;align=center;strokeWidth=1;spacing=6;spacingTop=-4;" vertex="1" parent="WIyWlLk6GJQsqaUBKTNV-1">
          <mxGeometry x="320" y="-1000" width="100" height="80" as="geometry" />
        </mxCell>
        <mxCell id="LAayai723NJFUMAzi0xS-23" value="Fin: Elegir qué Ver" style="rounded=1;whiteSpace=wrap;html=1;align=center;fontFamily=Helvetica;fillColor=#d5e8d4;strokeColor=#82b366;" vertex="1" parent="WIyWlLk6GJQsqaUBKTNV-1">
          <mxGeometry x="300" y="-540" width="140" height="40" as="geometry" />
        </mxCell>
        <mxCell id="1EtxA_1MqZFOX8c8LP41-2" style="edgeStyle=orthogonalEdgeStyle;rounded=0;orthogonalLoop=1;jettySize=auto;html=1;" edge="1" parent="WIyWlLk6GJQsqaUBKTNV-1" source="Q_uHoVtLZxtw0ozX1cx4-1" target="Q_uHoVtLZxtw0ozX1cx4-8">
          <mxGeometry relative="1" as="geometry" />
        </mxCell>
        <mxCell id="Q_uHoVtLZxtw0ozX1cx4-1" value="Mensaje de Bienvenida" style="rounded=1;whiteSpace=wrap;html=1;fontSize=12;glass=0;strokeWidth=1;shadow=0;align=center;horizontal=1;verticalAlign=middle;arcSize=0;fontFamily=Helvetica;" vertex="1" parent="WIyWlLk6GJQsqaUBKTNV-1">
          <mxGeometry x="680" y="-1080" width="140" height="40" as="geometry" />
        </mxCell>
        <mxCell id="1EtxA_1MqZFOX8c8LP41-0" style="edgeStyle=orthogonalEdgeStyle;rounded=0;orthogonalLoop=1;jettySize=auto;html=1;" edge="1" parent="WIyWlLk6GJQsqaUBKTNV-1" source="Q_uHoVtLZxtw0ozX1cx4-8" target="Q_uHoVtLZxtw0ozX1cx4-9">
          <mxGeometry relative="1" as="geometry" />
        </mxCell>
        <mxCell id="Q_uHoVtLZxtw0ozX1cx4-8" value="Presentar Opciones Principales" style="rounded=0;whiteSpace=wrap;html=1;fontSize=12;glass=0;strokeWidth=1;shadow=0;align=center;horizontal=1;verticalAlign=middle;arcSize=0;fontFamily=Helvetica;" vertex="1" parent="WIyWlLk6GJQsqaUBKTNV-1">
          <mxGeometry x="680" y="-1020" width="140" height="40" as="geometry" />
        </mxCell>
        <mxCell id="1EtxA_1MqZFOX8c8LP41-1" style="edgeStyle=orthogonalEdgeStyle;rounded=0;orthogonalLoop=1;jettySize=auto;html=1;" edge="1" parent="WIyWlLk6GJQsqaUBKTNV-1" source="Q_uHoVtLZxtw0ozX1cx4-9" target="Q_uHoVtLZxtw0ozX1cx4-22">
          <mxGeometry relative="1" as="geometry" />
        </mxCell>
        <mxCell id="Q_uHoVtLZxtw0ozX1cx4-9" value="Guardar Opción Seleccionada" style="rounded=1;whiteSpace=wrap;html=1;fontSize=12;glass=0;strokeWidth=1;shadow=0;align=center;horizontal=1;verticalAlign=middle;arcSize=0;fontFamily=Helvetica;" vertex="1" parent="WIyWlLk6GJQsqaUBKTNV-1">
          <mxGeometry x="680" y="-960" width="140" height="40" as="geometry" />
        </mxCell>
        <mxCell id="Q_uHoVtLZxtw0ozX1cx4-14" value="" style="edgeStyle=orthogonalEdgeStyle;rounded=0;orthogonalLoop=1;jettySize=auto;html=1;align=center;fontFamily=Helvetica;" edge="1" parent="WIyWlLk6GJQsqaUBKTNV-1" source="Q_uHoVtLZxtw0ozX1cx4-15" target="Q_uHoVtLZxtw0ozX1cx4-1">
          <mxGeometry relative="1" as="geometry">
            <mxPoint x="754" y="-1060" as="targetPoint" />
            <Array as="points">
              <mxPoint x="750" y="-1090" />
              <mxPoint x="750" y="-1090" />
            </Array>
          </mxGeometry>
        </mxCell>
        <mxCell id="Q_uHoVtLZxtw0ozX1cx4-15" value="Presentar Menu Inicial" style="rounded=1;whiteSpace=wrap;html=1;align=center;fontFamily=Helvetica;" vertex="1" parent="WIyWlLk6GJQsqaUBKTNV-1">
          <mxGeometry x="680" y="-1140" width="140" height="40" as="geometry" />
        </mxCell>
        <mxCell id="Q_uHoVtLZxtw0ozX1cx4-22" value="Fin: Presentar Menu Inicial" style="rounded=1;whiteSpace=wrap;html=1;align=center;fontFamily=Helvetica;" vertex="1" parent="WIyWlLk6GJQsqaUBKTNV-1">
          <mxGeometry x="680" y="-900" width="140" height="40" as="geometry" />
        </mxCell>
        <mxCell id="qPqYKTvxsL2XQVPMWcb9-0" style="edgeStyle=orthogonalEdgeStyle;rounded=0;orthogonalLoop=1;jettySize=auto;html=1;" edge="1" parent="WIyWlLk6GJQsqaUBKTNV-1" source="Q_uHoVtLZxtw0ozX1cx4-38" target="M_ZULPul1hcWOsDQe7Bn-1">
          <mxGeometry relative="1" as="geometry" />
        </mxCell>
        <mxCell id="Q_uHoVtLZxtw0ozX1cx4-38" value="Buscar Opciones" style="rounded=1;whiteSpace=wrap;html=1;align=center;fontFamily=Helvetica;fillColor=#dae8fc;strokeColor=#6c8ebf;strokeWidth=2;" vertex="1" parent="WIyWlLk6GJQsqaUBKTNV-1">
          <mxGeometry x="108" y="-220" width="140" height="40" as="geometry" />
        </mxCell>
        <mxCell id="1EtxA_1MqZFOX8c8LP41-4" style="edgeStyle=orthogonalEdgeStyle;rounded=0;orthogonalLoop=1;jettySize=auto;html=1;" edge="1" parent="WIyWlLk6GJQsqaUBKTNV-1" source="Q_uHoVtLZxtw0ozX1cx4-70" target="Q_uHoVtLZxtw0ozX1cx4-77">
          <mxGeometry relative="1" as="geometry" />
        </mxCell>
        <mxCell id="Q_uHoVtLZxtw0ozX1cx4-70" value="Preguntar Formato" style="rounded=1;whiteSpace=wrap;html=1;fontSize=12;glass=0;strokeWidth=1;shadow=0;align=center;horizontal=1;verticalAlign=middle;arcSize=0;fontFamily=Helvetica;" vertex="1" parent="WIyWlLk6GJQsqaUBKTNV-1">
          <mxGeometry x="940" y="-1080" width="140" height="40" as="geometry" />
        </mxCell>
        <mxCell id="1EtxA_1MqZFOX8c8LP41-5" style="edgeStyle=orthogonalEdgeStyle;rounded=0;orthogonalLoop=1;jettySize=auto;html=1;" edge="1" parent="WIyWlLk6GJQsqaUBKTNV-1" source="Q_uHoVtLZxtw0ozX1cx4-77" target="Q_uHoVtLZxtw0ozX1cx4-117">
          <mxGeometry relative="1" as="geometry" />
        </mxCell>
        <mxCell id="Q_uHoVtLZxtw0ozX1cx4-77" value="Guardar Formato" style="rounded=0;whiteSpace=wrap;html=1;fontSize=12;glass=0;strokeWidth=1;shadow=0;align=center;horizontal=1;verticalAlign=middle;arcSize=0;fontFamily=Helvetica;" vertex="1" parent="WIyWlLk6GJQsqaUBKTNV-1">
          <mxGeometry x="940" y="-1020" width="140" height="40" as="geometry" />
        </mxCell>
        <mxCell id="Q_uHoVtLZxtw0ozX1cx4-83" value="" style="edgeStyle=orthogonalEdgeStyle;rounded=0;orthogonalLoop=1;jettySize=auto;html=1;align=center;fontFamily=Helvetica;" edge="1" parent="WIyWlLk6GJQsqaUBKTNV-1" source="Q_uHoVtLZxtw0ozX1cx4-115" target="Q_uHoVtLZxtw0ozX1cx4-70">
          <mxGeometry relative="1" as="geometry">
            <mxPoint x="1014" y="-1050" as="targetPoint" />
            <Array as="points" />
            <mxPoint x="1010" y="-1090" as="sourcePoint" />
          </mxGeometry>
        </mxCell>
        <mxCell id="Q_uHoVtLZxtw0ozX1cx4-91" value="Fin: Recolectar Criterios de Selección" style="rounded=1;whiteSpace=wrap;html=1;align=center;fontFamily=Helvetica;" vertex="1" parent="WIyWlLk6GJQsqaUBKTNV-1">
          <mxGeometry x="940" y="-580" width="140" height="40" as="geometry" />
        </mxCell>
        <mxCell id="Q_uHoVtLZxtw0ozX1cx4-115" value="Recolectar Criterios de Selección" style="rounded=1;whiteSpace=wrap;html=1;align=center;fontFamily=Helvetica;" vertex="1" parent="WIyWlLk6GJQsqaUBKTNV-1">
          <mxGeometry x="940" y="-1140" width="140" height="40" as="geometry" />
        </mxCell>
        <mxCell id="1EtxA_1MqZFOX8c8LP41-6" style="edgeStyle=orthogonalEdgeStyle;rounded=0;orthogonalLoop=1;jettySize=auto;html=1;" edge="1" parent="WIyWlLk6GJQsqaUBKTNV-1" source="Q_uHoVtLZxtw0ozX1cx4-117" target="Q_uHoVtLZxtw0ozX1cx4-118">
          <mxGeometry relative="1" as="geometry" />
        </mxCell>
        <mxCell id="Q_uHoVtLZxtw0ozX1cx4-117" value="Preguntar Género" style="rounded=1;whiteSpace=wrap;html=1;fontSize=12;glass=0;strokeWidth=1;shadow=0;align=center;horizontal=1;verticalAlign=middle;arcSize=0;fontFamily=Helvetica;" vertex="1" parent="WIyWlLk6GJQsqaUBKTNV-1">
          <mxGeometry x="940" y="-960" width="140" height="40" as="geometry" />
        </mxCell>
        <mxCell id="1EtxA_1MqZFOX8c8LP41-7" style="edgeStyle=orthogonalEdgeStyle;rounded=0;orthogonalLoop=1;jettySize=auto;html=1;" edge="1" parent="WIyWlLk6GJQsqaUBKTNV-1" source="Q_uHoVtLZxtw0ozX1cx4-118" target="Q_uHoVtLZxtw0ozX1cx4-120">
          <mxGeometry relative="1" as="geometry" />
        </mxCell>
        <mxCell id="Q_uHoVtLZxtw0ozX1cx4-118" value="Guardar Género" style="rounded=0;whiteSpace=wrap;html=1;fontSize=12;glass=0;strokeWidth=1;shadow=0;align=center;horizontal=1;verticalAlign=middle;arcSize=0;fontFamily=Helvetica;" vertex="1" parent="WIyWlLk6GJQsqaUBKTNV-1">
          <mxGeometry x="940" y="-900" width="140" height="40" as="geometry" />
        </mxCell>
        <mxCell id="1EtxA_1MqZFOX8c8LP41-9" style="edgeStyle=orthogonalEdgeStyle;rounded=0;orthogonalLoop=1;jettySize=auto;html=1;" edge="1" parent="WIyWlLk6GJQsqaUBKTNV-1" source="Q_uHoVtLZxtw0ozX1cx4-120" target="Q_uHoVtLZxtw0ozX1cx4-124">
          <mxGeometry relative="1" as="geometry" />
        </mxCell>
        <mxCell id="Q_uHoVtLZxtw0ozX1cx4-120" value="Preguntar si Desea Filtrar por Actor, Director o Studio" style="rounded=1;whiteSpace=wrap;html=1;fontSize=12;glass=0;strokeWidth=1;shadow=0;align=center;horizontal=1;verticalAlign=middle;arcSize=0;fontFamily=Helvetica;" vertex="1" parent="WIyWlLk6GJQsqaUBKTNV-1">
          <mxGeometry x="940" y="-840" width="140" height="60" as="geometry" />
        </mxCell>
        <mxCell id="1EtxA_1MqZFOX8c8LP41-11" style="edgeStyle=orthogonalEdgeStyle;rounded=0;orthogonalLoop=1;jettySize=auto;html=1;" edge="1" parent="WIyWlLk6GJQsqaUBKTNV-1" source="Q_uHoVtLZxtw0ozX1cx4-123" target="Q_uHoVtLZxtw0ozX1cx4-91">
          <mxGeometry relative="1" as="geometry" />
        </mxCell>
        <mxCell id="Q_uHoVtLZxtw0ozX1cx4-123" value="Guardar Artista" style="rounded=0;whiteSpace=wrap;html=1;fontSize=12;glass=0;strokeWidth=1;shadow=0;align=center;horizontal=1;verticalAlign=middle;arcSize=0;fontFamily=Helvetica;" vertex="1" parent="WIyWlLk6GJQsqaUBKTNV-1">
          <mxGeometry x="940" y="-640" width="140" height="40" as="geometry" />
        </mxCell>
        <mxCell id="1EtxA_1MqZFOX8c8LP41-8" style="edgeStyle=orthogonalEdgeStyle;rounded=0;orthogonalLoop=1;jettySize=auto;html=1;" edge="1" parent="WIyWlLk6GJQsqaUBKTNV-1" source="Q_uHoVtLZxtw0ozX1cx4-124" target="xOi3PLssuOtdPc7cSbqe-66">
          <mxGeometry relative="1" as="geometry" />
        </mxCell>
        <mxCell id="Q_uHoVtLZxtw0ozX1cx4-124" value="Guardar Tipo Artista" style="rounded=0;whiteSpace=wrap;html=1;fontSize=12;glass=0;strokeWidth=1;shadow=0;align=center;horizontal=1;verticalAlign=middle;arcSize=0;fontFamily=Helvetica;" vertex="1" parent="WIyWlLk6GJQsqaUBKTNV-1">
          <mxGeometry x="940" y="-760" width="140" height="40" as="geometry" />
        </mxCell>
        <mxCell id="xOi3PLssuOtdPc7cSbqe-15" style="edgeStyle=orthogonalEdgeStyle;rounded=0;orthogonalLoop=1;jettySize=auto;html=1;entryX=0.5;entryY=0;entryDx=0;entryDy=0;" edge="1" parent="WIyWlLk6GJQsqaUBKTNV-1" source="Ja6stTK6MIuIbJF59Wsh-6" target="EkAIFkrPFf19M-h8upW9-62">
          <mxGeometry relative="1" as="geometry">
            <mxPoint x="178" y="170" as="targetPoint" />
          </mxGeometry>
        </mxCell>
        <mxCell id="EkAIFkrPFf19M-h8upW9-59" value="Animación" style="edgeLabel;html=1;align=center;verticalAlign=middle;resizable=0;points=[];" connectable="0" vertex="1" parent="xOi3PLssuOtdPc7cSbqe-15">
          <mxGeometry x="-0.3087" y="-1" relative="1" as="geometry">
            <mxPoint x="1" y="-5" as="offset" />
          </mxGeometry>
        </mxCell>
        <mxCell id="EkAIFkrPFf19M-h8upW9-56" style="edgeStyle=orthogonalEdgeStyle;rounded=0;orthogonalLoop=1;jettySize=auto;html=1;exitX=0;exitY=0.5;exitDx=0;exitDy=0;entryX=0.5;entryY=0;entryDx=0;entryDy=0;" edge="1" parent="WIyWlLk6GJQsqaUBKTNV-1" source="Ja6stTK6MIuIbJF59Wsh-6" target="EkAIFkrPFf19M-h8upW9-61">
          <mxGeometry relative="1" as="geometry">
            <mxPoint x="-90" y="80" as="targetPoint" />
          </mxGeometry>
        </mxCell>
        <mxCell id="EkAIFkrPFf19M-h8upW9-58" value="Película" style="edgeLabel;html=1;align=center;verticalAlign=middle;resizable=0;points=[];" connectable="0" vertex="1" parent="EkAIFkrPFf19M-h8upW9-56">
          <mxGeometry x="-0.7132" y="3" relative="1" as="geometry">
            <mxPoint x="-20" y="-3" as="offset" />
          </mxGeometry>
        </mxCell>
        <mxCell id="TgdGyLAeBOjxs6yXoLCY-0" style="edgeStyle=orthogonalEdgeStyle;rounded=0;orthogonalLoop=1;jettySize=auto;html=1;entryX=0.5;entryY=0;entryDx=0;entryDy=0;" edge="1" parent="WIyWlLk6GJQsqaUBKTNV-1" source="Ja6stTK6MIuIbJF59Wsh-6" target="EkAIFkrPFf19M-h8upW9-60">
          <mxGeometry relative="1" as="geometry" />
        </mxCell>
        <mxCell id="Ja6stTK6MIuIbJF59Wsh-6" value="formato" style="rhombus;whiteSpace=wrap;html=1;shadow=0;fontFamily=Helvetica;fontSize=12;align=center;strokeWidth=1;spacing=6;spacingTop=-4;" vertex="1" parent="WIyWlLk6GJQsqaUBKTNV-1">
          <mxGeometry x="128" y="-40" width="100" height="80" as="geometry" />
        </mxCell>
        <mxCell id="EkAIFkrPFf19M-h8upW9-57" style="edgeStyle=orthogonalEdgeStyle;rounded=0;orthogonalLoop=1;jettySize=auto;html=1;" edge="1" parent="WIyWlLk6GJQsqaUBKTNV-1" source="M_ZULPul1hcWOsDQe7Bn-1" target="Ja6stTK6MIuIbJF59Wsh-6">
          <mxGeometry relative="1" as="geometry" />
        </mxCell>
        <mxCell id="M_ZULPul1hcWOsDQe7Bn-1" value="&lt;div&gt;Definiciones Iniciales:&lt;br&gt;1) archivos a usar&lt;br&gt;2) criterios de elección&lt;/div&gt;" style="rounded=1;whiteSpace=wrap;html=1;fontSize=12;glass=0;strokeWidth=1;shadow=0;align=center;horizontal=1;verticalAlign=middle;arcSize=0;fontFamily=Helvetica;" vertex="1" parent="WIyWlLk6GJQsqaUBKTNV-1">
          <mxGeometry x="108" y="-140" width="140" height="60" as="geometry" />
        </mxCell>
        <mxCell id="1EtxA_1MqZFOX8c8LP41-10" style="edgeStyle=orthogonalEdgeStyle;rounded=0;orthogonalLoop=1;jettySize=auto;html=1;" edge="1" parent="WIyWlLk6GJQsqaUBKTNV-1" source="xOi3PLssuOtdPc7cSbqe-66" target="Q_uHoVtLZxtw0ozX1cx4-123">
          <mxGeometry relative="1" as="geometry" />
        </mxCell>
        <mxCell id="xOi3PLssuOtdPc7cSbqe-66" value="Preguntar Artista" style="rounded=1;whiteSpace=wrap;html=1;fontSize=12;glass=0;strokeWidth=1;shadow=0;align=center;horizontal=1;verticalAlign=middle;arcSize=0;fontFamily=Helvetica;" vertex="1" parent="WIyWlLk6GJQsqaUBKTNV-1">
          <mxGeometry x="940" y="-700" width="140" height="40" as="geometry" />
        </mxCell>
        <mxCell id="TgdGyLAeBOjxs6yXoLCY-2" style="edgeStyle=orthogonalEdgeStyle;rounded=0;orthogonalLoop=1;jettySize=auto;html=1;entryX=0.5;entryY=0;entryDx=0;entryDy=0;" edge="1" parent="WIyWlLk6GJQsqaUBKTNV-1" source="EkAIFkrPFf19M-h8upW9-2" target="EkAIFkrPFf19M-h8upW9-67">
          <mxGeometry relative="1" as="geometry" />
        </mxCell>
        <mxCell id="EkAIFkrPFf19M-h8upW9-2" value="previo1.append( ) = inventario_peliculas[ i ]" style="rounded=1;whiteSpace=wrap;html=1;fontSize=12;glass=0;strokeWidth=1;shadow=0;align=center;horizontal=1;verticalAlign=middle;arcSize=0;fontFamily=Helvetica;" vertex="1" parent="WIyWlLk6GJQsqaUBKTNV-1">
          <mxGeometry x="1210" y="-20" width="140" height="40" as="geometry" />
        </mxCell>
        <mxCell id="EkAIFkrPFf19M-h8upW9-3" style="edgeStyle=orthogonalEdgeStyle;rounded=0;orthogonalLoop=1;jettySize=auto;html=1;" edge="1" parent="WIyWlLk6GJQsqaUBKTNV-1" source="EkAIFkrPFf19M-h8upW9-4" target="EkAIFkrPFf19M-h8upW9-24">
          <mxGeometry relative="1" as="geometry" />
        </mxCell>
        <mxCell id="EkAIFkrPFf19M-h8upW9-4" value="Buscar Película" style="rounded=1;whiteSpace=wrap;html=1;align=center;fontFamily=Helvetica;fillColor=#e1d5e7;strokeColor=#9673a6;strokeWidth=2;" vertex="1" parent="WIyWlLk6GJQsqaUBKTNV-1">
          <mxGeometry x="1210" y="-330" width="140" height="40" as="geometry" />
        </mxCell>
        <mxCell id="EkAIFkrPFf19M-h8upW9-5" value="Fin: Buscar Película" style="rounded=1;whiteSpace=wrap;html=1;align=center;fontFamily=Helvetica;fillColor=#e1d5e7;strokeColor=#9673a6;strokeWidth=2;" vertex="1" parent="WIyWlLk6GJQsqaUBKTNV-1">
          <mxGeometry x="1210" y="2540" width="140" height="40" as="geometry" />
        </mxCell>
        <mxCell id="EkAIFkrPFf19M-h8upW9-13" style="edgeStyle=orthogonalEdgeStyle;rounded=0;orthogonalLoop=1;jettySize=auto;html=1;" edge="1" parent="WIyWlLk6GJQsqaUBKTNV-1" source="EkAIFkrPFf19M-h8upW9-17" target="EkAIFkrPFf19M-h8upW9-2">
          <mxGeometry relative="1" as="geometry" />
        </mxCell>
        <mxCell id="EkAIFkrPFf19M-h8upW9-14" value="Sí" style="edgeLabel;html=1;align=center;verticalAlign=middle;resizable=0;points=[];" connectable="0" vertex="1" parent="EkAIFkrPFf19M-h8upW9-13">
          <mxGeometry x="-0.3569" y="-1" relative="1" as="geometry">
            <mxPoint as="offset" />
          </mxGeometry>
        </mxCell>
        <mxCell id="TgdGyLAeBOjxs6yXoLCY-1" style="edgeStyle=orthogonalEdgeStyle;rounded=0;orthogonalLoop=1;jettySize=auto;html=1;" edge="1" parent="WIyWlLk6GJQsqaUBKTNV-1" source="EkAIFkrPFf19M-h8upW9-17">
          <mxGeometry relative="1" as="geometry">
            <mxPoint x="1280" y="60" as="targetPoint" />
            <Array as="points">
              <mxPoint x="1420" y="-100" />
              <mxPoint x="1420" y="60" />
            </Array>
          </mxGeometry>
        </mxCell>
        <mxCell id="EkAIFkrPFf19M-h8upW9-17" value="archivo[ i ][genero] == genero" style="rhombus;whiteSpace=wrap;html=1;shadow=0;fontFamily=Helvetica;fontSize=12;align=center;strokeWidth=1;spacing=6;spacingTop=-4;" vertex="1" parent="WIyWlLk6GJQsqaUBKTNV-1">
          <mxGeometry x="1230" y="-140" width="100" height="80" as="geometry" />
        </mxCell>
        <mxCell id="EkAIFkrPFf19M-h8upW9-18" style="edgeStyle=orthogonalEdgeStyle;rounded=0;orthogonalLoop=1;jettySize=auto;html=1;" edge="1" parent="WIyWlLk6GJQsqaUBKTNV-1" target="EkAIFkrPFf19M-h8upW9-21">
          <mxGeometry relative="1" as="geometry">
            <mxPoint x="1280" y="60" as="sourcePoint" />
            <Array as="points">
              <mxPoint x="1280" y="60" />
              <mxPoint x="1140" y="60" />
            </Array>
          </mxGeometry>
        </mxCell>
        <mxCell id="EkAIFkrPFf19M-h8upW9-20" style="edgeStyle=orthogonalEdgeStyle;rounded=0;orthogonalLoop=1;jettySize=auto;html=1;" edge="1" parent="WIyWlLk6GJQsqaUBKTNV-1" source="EkAIFkrPFf19M-h8upW9-21">
          <mxGeometry relative="1" as="geometry">
            <mxPoint x="1280" y="-170" as="targetPoint" />
            <Array as="points">
              <mxPoint x="1141" y="-170" />
              <mxPoint x="1280" y="-170" />
            </Array>
          </mxGeometry>
        </mxCell>
        <mxCell id="EkAIFkrPFf19M-h8upW9-21" value="i&lt;div&gt;range(inventario)&lt;/div&gt;" style="shape=lineEllipse;perimeter=ellipsePerimeter;whiteSpace=wrap;html=1;backgroundOutline=1;" vertex="1" parent="WIyWlLk6GJQsqaUBKTNV-1">
          <mxGeometry x="1091" y="-140" width="100" height="80" as="geometry" />
        </mxCell>
        <mxCell id="EkAIFkrPFf19M-h8upW9-22" style="edgeStyle=orthogonalEdgeStyle;rounded=0;orthogonalLoop=1;jettySize=auto;html=1;" edge="1" parent="WIyWlLk6GJQsqaUBKTNV-1" source="EkAIFkrPFf19M-h8upW9-24" target="EkAIFkrPFf19M-h8upW9-17">
          <mxGeometry relative="1" as="geometry" />
        </mxCell>
        <mxCell id="EkAIFkrPFf19M-h8upW9-24" value="Abrir archivo películas&lt;br&gt;Crear archivo previo 1" style="rounded=1;whiteSpace=wrap;html=1;fontSize=12;glass=0;strokeWidth=1;shadow=0;align=center;horizontal=1;verticalAlign=middle;arcSize=0;fontFamily=Helvetica;" vertex="1" parent="WIyWlLk6GJQsqaUBKTNV-1">
          <mxGeometry x="1210" y="-260" width="140" height="60" as="geometry" />
        </mxCell>
        <mxCell id="TgdGyLAeBOjxs6yXoLCY-6" style="edgeStyle=orthogonalEdgeStyle;rounded=0;orthogonalLoop=1;jettySize=auto;html=1;" edge="1" parent="WIyWlLk6GJQsqaUBKTNV-1" source="EkAIFkrPFf19M-h8upW9-36">
          <mxGeometry relative="1" as="geometry">
            <mxPoint x="860" y="360" as="targetPoint" />
            <Array as="points">
              <mxPoint x="670" y="360" />
            </Array>
          </mxGeometry>
        </mxCell>
        <mxCell id="TgdGyLAeBOjxs6yXoLCY-14" style="edgeStyle=orthogonalEdgeStyle;rounded=0;orthogonalLoop=1;jettySize=auto;html=1;" edge="1" parent="WIyWlLk6GJQsqaUBKTNV-1" target="EkAIFkrPFf19M-h8upW9-36">
          <mxGeometry relative="1" as="geometry">
            <mxPoint x="860" y="670" as="sourcePoint" />
            <Array as="points">
              <mxPoint x="670" y="670" />
            </Array>
          </mxGeometry>
        </mxCell>
        <mxCell id="EkAIFkrPFf19M-h8upW9-36" value="&lt;div&gt;k&lt;/div&gt;&lt;div&gt;range(previo1)&lt;/div&gt;" style="shape=lineEllipse;perimeter=ellipsePerimeter;whiteSpace=wrap;html=1;backgroundOutline=1;" vertex="1" parent="WIyWlLk6GJQsqaUBKTNV-1">
          <mxGeometry x="620" y="430" width="100" height="80" as="geometry" />
        </mxCell>
        <mxCell id="TgdGyLAeBOjxs6yXoLCY-5" style="edgeStyle=orthogonalEdgeStyle;rounded=0;orthogonalLoop=1;jettySize=auto;html=1;" edge="1" parent="WIyWlLk6GJQsqaUBKTNV-1" source="EkAIFkrPFf19M-h8upW9-39">
          <mxGeometry relative="1" as="geometry">
            <mxPoint x="1280" y="360" as="targetPoint" />
            <Array as="points">
              <mxPoint x="1090" y="360" />
            </Array>
          </mxGeometry>
        </mxCell>
        <mxCell id="TgdGyLAeBOjxs6yXoLCY-15" style="edgeStyle=orthogonalEdgeStyle;rounded=0;orthogonalLoop=1;jettySize=auto;html=1;exitX=0.5;exitY=1;exitDx=0;exitDy=0;entryX=0.5;entryY=1;entryDx=0;entryDy=0;" edge="1" parent="WIyWlLk6GJQsqaUBKTNV-1" target="EkAIFkrPFf19M-h8upW9-39">
          <mxGeometry relative="1" as="geometry">
            <mxPoint x="1280" y="670" as="sourcePoint" />
            <Array as="points">
              <mxPoint x="1090" y="670" />
            </Array>
          </mxGeometry>
        </mxCell>
        <mxCell id="EkAIFkrPFf19M-h8upW9-39" value="&lt;div&gt;k&lt;/div&gt;&lt;div&gt;range(previo1)&lt;/div&gt;" style="shape=lineEllipse;perimeter=ellipsePerimeter;whiteSpace=wrap;html=1;backgroundOutline=1;" vertex="1" parent="WIyWlLk6GJQsqaUBKTNV-1">
          <mxGeometry x="1040" y="430" width="100" height="80" as="geometry" />
        </mxCell>
        <mxCell id="EkAIFkrPFf19M-h8upW9-40" style="edgeStyle=orthogonalEdgeStyle;rounded=0;orthogonalLoop=1;jettySize=auto;html=1;exitX=0.5;exitY=1;exitDx=0;exitDy=0;" edge="1" parent="WIyWlLk6GJQsqaUBKTNV-1" source="EkAIFkrPFf19M-h8upW9-46" target="EkAIFkrPFf19M-h8upW9-55">
          <mxGeometry relative="1" as="geometry">
            <mxPoint x="1340" y="300" as="sourcePoint" />
            <mxPoint x="1290" y="430" as="targetPoint" />
            <Array as="points" />
          </mxGeometry>
        </mxCell>
        <mxCell id="EkAIFkrPFf19M-h8upW9-70" value="director" style="edgeLabel;html=1;align=center;verticalAlign=middle;resizable=0;points=[];" connectable="0" vertex="1" parent="EkAIFkrPFf19M-h8upW9-40">
          <mxGeometry x="-0.4033" relative="1" as="geometry">
            <mxPoint y="-13" as="offset" />
          </mxGeometry>
        </mxCell>
        <mxCell id="EkAIFkrPFf19M-h8upW9-43" style="edgeStyle=orthogonalEdgeStyle;rounded=0;orthogonalLoop=1;jettySize=auto;html=1;" edge="1" parent="WIyWlLk6GJQsqaUBKTNV-1" source="EkAIFkrPFf19M-h8upW9-46" target="EkAIFkrPFf19M-h8upW9-52">
          <mxGeometry relative="1" as="geometry" />
        </mxCell>
        <mxCell id="EkAIFkrPFf19M-h8upW9-44" value="actor" style="edgeLabel;html=1;align=center;verticalAlign=middle;resizable=0;points=[];" connectable="0" vertex="1" parent="EkAIFkrPFf19M-h8upW9-43">
          <mxGeometry x="-0.3373" y="-2" relative="1" as="geometry">
            <mxPoint as="offset" />
          </mxGeometry>
        </mxCell>
        <mxCell id="EkAIFkrPFf19M-h8upW9-77" style="edgeStyle=orthogonalEdgeStyle;rounded=0;orthogonalLoop=1;jettySize=auto;html=1;entryX=0.5;entryY=0;entryDx=0;entryDy=0;" edge="1" parent="WIyWlLk6GJQsqaUBKTNV-1" source="EkAIFkrPFf19M-h8upW9-46" target="EkAIFkrPFf19M-h8upW9-80">
          <mxGeometry relative="1" as="geometry">
            <mxPoint x="1640" y="480" as="targetPoint" />
          </mxGeometry>
        </mxCell>
        <mxCell id="EkAIFkrPFf19M-h8upW9-78" value="ninguno" style="edgeLabel;html=1;align=center;verticalAlign=middle;resizable=0;points=[];" connectable="0" vertex="1" parent="EkAIFkrPFf19M-h8upW9-77">
          <mxGeometry x="-0.4084" y="-2" relative="1" as="geometry">
            <mxPoint as="offset" />
          </mxGeometry>
        </mxCell>
        <mxCell id="EkAIFkrPFf19M-h8upW9-46" value="tipo_art" style="rhombus;whiteSpace=wrap;html=1;shadow=0;fontFamily=Helvetica;fontSize=12;align=center;strokeWidth=1;spacing=6;spacingTop=-4;" vertex="1" parent="WIyWlLk6GJQsqaUBKTNV-1">
          <mxGeometry x="1230" y="240" width="100" height="80" as="geometry" />
        </mxCell>
        <mxCell id="TgdGyLAeBOjxs6yXoLCY-8" style="edgeStyle=orthogonalEdgeStyle;rounded=0;orthogonalLoop=1;jettySize=auto;html=1;entryX=0.5;entryY=0;entryDx=0;entryDy=0;" edge="1" parent="WIyWlLk6GJQsqaUBKTNV-1" source="EkAIFkrPFf19M-h8upW9-47" target="EkAIFkrPFf19M-h8upW9-85">
          <mxGeometry relative="1" as="geometry">
            <mxPoint x="859" y="750" as="targetPoint" />
            <Array as="points">
              <mxPoint x="859" y="740" />
              <mxPoint x="1280" y="740" />
            </Array>
          </mxGeometry>
        </mxCell>
        <mxCell id="EkAIFkrPFf19M-h8upW9-47" value="previo2.append( ) = previo1[ k ]" style="rounded=1;whiteSpace=wrap;html=1;fontSize=12;glass=0;strokeWidth=1;shadow=0;align=center;horizontal=1;verticalAlign=middle;arcSize=0;fontFamily=Helvetica;" vertex="1" parent="WIyWlLk6GJQsqaUBKTNV-1">
          <mxGeometry x="789" y="575" width="140" height="40" as="geometry" />
        </mxCell>
        <mxCell id="TgdGyLAeBOjxs6yXoLCY-4" style="edgeStyle=orthogonalEdgeStyle;rounded=0;orthogonalLoop=1;jettySize=auto;html=1;entryX=0.5;entryY=0;entryDx=0;entryDy=0;" edge="1" parent="WIyWlLk6GJQsqaUBKTNV-1" source="EkAIFkrPFf19M-h8upW9-52" target="EkAIFkrPFf19M-h8upW9-47">
          <mxGeometry relative="1" as="geometry" />
        </mxCell>
        <mxCell id="TgdGyLAeBOjxs6yXoLCY-12" value="Sí" style="edgeLabel;html=1;align=center;verticalAlign=middle;resizable=0;points=[];" connectable="0" vertex="1" parent="TgdGyLAeBOjxs6yXoLCY-4">
          <mxGeometry x="-0.4222" y="1" relative="1" as="geometry">
            <mxPoint as="offset" />
          </mxGeometry>
        </mxCell>
        <mxCell id="TgdGyLAeBOjxs6yXoLCY-11" style="edgeStyle=orthogonalEdgeStyle;rounded=0;orthogonalLoop=1;jettySize=auto;html=1;" edge="1" parent="WIyWlLk6GJQsqaUBKTNV-1" source="EkAIFkrPFf19M-h8upW9-52">
          <mxGeometry relative="1" as="geometry">
            <mxPoint x="860" y="670" as="targetPoint" />
            <Array as="points">
              <mxPoint x="1000" y="470" />
              <mxPoint x="1000" y="670" />
            </Array>
          </mxGeometry>
        </mxCell>
        <mxCell id="TgdGyLAeBOjxs6yXoLCY-13" value="No" style="edgeLabel;html=1;align=center;verticalAlign=middle;resizable=0;points=[];" connectable="0" vertex="1" parent="TgdGyLAeBOjxs6yXoLCY-11">
          <mxGeometry x="-0.4624" y="2" relative="1" as="geometry">
            <mxPoint as="offset" />
          </mxGeometry>
        </mxCell>
        <mxCell id="EkAIFkrPFf19M-h8upW9-52" value="&lt;div style=&quot;&quot;&gt;&lt;span style=&quot;background-color: initial;&quot;&gt;previo1[ k ][actor1] == artista&lt;/span&gt;&lt;/div&gt;&lt;div style=&quot;&quot;&gt;&lt;span style=&quot;background-color: initial;&quot;&gt;OR previo1[ k ][actor2]&amp;nbsp;== artista&lt;/span&gt;&lt;/div&gt;" style="rhombus;whiteSpace=wrap;html=1;shadow=0;fontFamily=Helvetica;fontSize=12;align=center;strokeWidth=1;spacing=6;spacingTop=-4;" vertex="1" parent="WIyWlLk6GJQsqaUBKTNV-1">
          <mxGeometry x="750" y="410" width="218" height="120" as="geometry" />
        </mxCell>
        <mxCell id="EkAIFkrPFf19M-h8upW9-53" style="edgeStyle=orthogonalEdgeStyle;rounded=0;orthogonalLoop=1;jettySize=auto;html=1;entryX=0.5;entryY=0;entryDx=0;entryDy=0;" edge="1" parent="WIyWlLk6GJQsqaUBKTNV-1" source="EkAIFkrPFf19M-h8upW9-55" target="EkAIFkrPFf19M-h8upW9-79">
          <mxGeometry relative="1" as="geometry">
            <mxPoint x="1280" y="535" as="targetPoint" />
          </mxGeometry>
        </mxCell>
        <mxCell id="TgdGyLAeBOjxs6yXoLCY-17" value="Sí" style="edgeLabel;html=1;align=center;verticalAlign=middle;resizable=0;points=[];" connectable="0" vertex="1" parent="EkAIFkrPFf19M-h8upW9-53">
          <mxGeometry x="-0.1385" y="3" relative="1" as="geometry">
            <mxPoint as="offset" />
          </mxGeometry>
        </mxCell>
        <mxCell id="TgdGyLAeBOjxs6yXoLCY-16" style="edgeStyle=orthogonalEdgeStyle;rounded=0;orthogonalLoop=1;jettySize=auto;html=1;exitX=1;exitY=0.5;exitDx=0;exitDy=0;" edge="1" parent="WIyWlLk6GJQsqaUBKTNV-1" source="EkAIFkrPFf19M-h8upW9-55">
          <mxGeometry relative="1" as="geometry">
            <mxPoint x="1280" y="670" as="targetPoint" />
            <Array as="points">
              <mxPoint x="1440" y="470" />
              <mxPoint x="1440" y="670" />
            </Array>
          </mxGeometry>
        </mxCell>
        <mxCell id="TgdGyLAeBOjxs6yXoLCY-18" value="No" style="edgeLabel;html=1;align=center;verticalAlign=middle;resizable=0;points=[];" connectable="0" vertex="1" parent="TgdGyLAeBOjxs6yXoLCY-16">
          <mxGeometry x="-0.3628" y="3" relative="1" as="geometry">
            <mxPoint as="offset" />
          </mxGeometry>
        </mxCell>
        <mxCell id="EkAIFkrPFf19M-h8upW9-55" value="previo1[ k ][director] == artista" style="rhombus;whiteSpace=wrap;html=1;shadow=0;fontFamily=Helvetica;fontSize=12;align=center;strokeWidth=1;spacing=6;spacingTop=-4;" vertex="1" parent="WIyWlLk6GJQsqaUBKTNV-1">
          <mxGeometry x="1190" y="430" width="180" height="80" as="geometry" />
        </mxCell>
        <mxCell id="EkAIFkrPFf19M-h8upW9-66" style="edgeStyle=orthogonalEdgeStyle;rounded=0;orthogonalLoop=1;jettySize=auto;html=1;" edge="1" parent="WIyWlLk6GJQsqaUBKTNV-1" source="EkAIFkrPFf19M-h8upW9-60" target="EkAIFkrPFf19M-h8upW9-63">
          <mxGeometry relative="1" as="geometry">
            <mxPoint x="330" y="360" as="targetPoint" />
            <Array as="points">
              <mxPoint x="372" y="220" />
              <mxPoint x="178" y="220" />
            </Array>
          </mxGeometry>
        </mxCell>
        <mxCell id="EkAIFkrPFf19M-h8upW9-60" value="&lt;div&gt;Buscar Serie&lt;/div&gt;" style="rounded=1;whiteSpace=wrap;html=1;fontSize=12;glass=0;strokeWidth=1;shadow=0;align=center;horizontal=1;verticalAlign=middle;arcSize=0;fontFamily=Helvetica;" vertex="1" parent="WIyWlLk6GJQsqaUBKTNV-1">
          <mxGeometry x="302" y="120" width="140" height="60" as="geometry" />
        </mxCell>
        <mxCell id="EkAIFkrPFf19M-h8upW9-65" style="edgeStyle=orthogonalEdgeStyle;rounded=0;orthogonalLoop=1;jettySize=auto;html=1;entryX=0.5;entryY=0;entryDx=0;entryDy=0;" edge="1" parent="WIyWlLk6GJQsqaUBKTNV-1" source="EkAIFkrPFf19M-h8upW9-61" target="EkAIFkrPFf19M-h8upW9-63">
          <mxGeometry relative="1" as="geometry">
            <mxPoint x="-30" y="350" as="targetPoint" />
            <Array as="points">
              <mxPoint x="-20" y="220" />
              <mxPoint x="178" y="220" />
            </Array>
          </mxGeometry>
        </mxCell>
        <mxCell id="EkAIFkrPFf19M-h8upW9-61" value="&lt;div&gt;Buscar Película&lt;/div&gt;" style="rounded=1;whiteSpace=wrap;html=1;fontSize=12;glass=0;strokeWidth=1;shadow=0;align=center;horizontal=1;verticalAlign=middle;arcSize=0;fontFamily=Helvetica;fillColor=#e1d5e7;strokeColor=#9673a6;" vertex="1" parent="WIyWlLk6GJQsqaUBKTNV-1">
          <mxGeometry x="-90" y="120" width="140" height="60" as="geometry" />
        </mxCell>
        <mxCell id="EkAIFkrPFf19M-h8upW9-64" style="edgeStyle=orthogonalEdgeStyle;rounded=0;orthogonalLoop=1;jettySize=auto;html=1;entryX=0.5;entryY=0;entryDx=0;entryDy=0;" edge="1" parent="WIyWlLk6GJQsqaUBKTNV-1" source="EkAIFkrPFf19M-h8upW9-62" target="EkAIFkrPFf19M-h8upW9-63">
          <mxGeometry relative="1" as="geometry" />
        </mxCell>
        <mxCell id="EkAIFkrPFf19M-h8upW9-62" value="Buscar Animación" style="rounded=1;whiteSpace=wrap;html=1;fontSize=12;glass=0;strokeWidth=1;shadow=0;align=center;horizontal=1;verticalAlign=middle;arcSize=0;fontFamily=Helvetica;" vertex="1" parent="WIyWlLk6GJQsqaUBKTNV-1">
          <mxGeometry x="108" y="120" width="140" height="60" as="geometry" />
        </mxCell>
        <mxCell id="EkAIFkrPFf19M-h8upW9-63" value="Retornar Recomendación" style="rounded=1;whiteSpace=wrap;html=1;fontSize=12;glass=0;strokeWidth=1;shadow=0;align=center;horizontal=1;verticalAlign=middle;arcSize=0;fontFamily=Helvetica;" vertex="1" parent="WIyWlLk6GJQsqaUBKTNV-1">
          <mxGeometry x="108" y="240" width="140" height="60" as="geometry" />
        </mxCell>
        <mxCell id="TgdGyLAeBOjxs6yXoLCY-3" style="edgeStyle=orthogonalEdgeStyle;rounded=0;orthogonalLoop=1;jettySize=auto;html=1;entryX=0.5;entryY=0;entryDx=0;entryDy=0;" edge="1" parent="WIyWlLk6GJQsqaUBKTNV-1" source="EkAIFkrPFf19M-h8upW9-67" target="EkAIFkrPFf19M-h8upW9-46">
          <mxGeometry relative="1" as="geometry" />
        </mxCell>
        <mxCell id="EkAIFkrPFf19M-h8upW9-67" value="Crear archivo previo 2" style="rounded=1;whiteSpace=wrap;html=1;fontSize=12;glass=0;strokeWidth=1;shadow=0;align=center;horizontal=1;verticalAlign=middle;arcSize=0;fontFamily=Helvetica;" vertex="1" parent="WIyWlLk6GJQsqaUBKTNV-1">
          <mxGeometry x="1210" y="120" width="140" height="60" as="geometry" />
        </mxCell>
        <mxCell id="EkAIFkrPFf19M-h8upW9-72" style="edgeStyle=orthogonalEdgeStyle;rounded=0;orthogonalLoop=1;jettySize=auto;html=1;exitX=0.5;exitY=0;exitDx=0;exitDy=0;" edge="1" parent="WIyWlLk6GJQsqaUBKTNV-1" source="EkAIFkrPFf19M-h8upW9-73">
          <mxGeometry relative="1" as="geometry">
            <mxPoint x="1650" y="360" as="targetPoint" />
            <Array as="points">
              <mxPoint x="1510" y="360" />
              <mxPoint x="1640" y="360" />
            </Array>
            <mxPoint x="1510" y="380" as="sourcePoint" />
          </mxGeometry>
        </mxCell>
        <mxCell id="TgdGyLAeBOjxs6yXoLCY-19" style="edgeStyle=orthogonalEdgeStyle;rounded=0;orthogonalLoop=1;jettySize=auto;html=1;" edge="1" parent="WIyWlLk6GJQsqaUBKTNV-1" target="EkAIFkrPFf19M-h8upW9-73">
          <mxGeometry relative="1" as="geometry">
            <mxPoint x="1650" y="660" as="sourcePoint" />
            <Array as="points">
              <mxPoint x="1651" y="660" />
              <mxPoint x="1510" y="660" />
            </Array>
          </mxGeometry>
        </mxCell>
        <mxCell id="EkAIFkrPFf19M-h8upW9-73" value="&lt;div&gt;k&lt;/div&gt;&lt;div&gt;range(previo1)&lt;/div&gt;" style="shape=lineEllipse;perimeter=ellipsePerimeter;whiteSpace=wrap;html=1;backgroundOutline=1;" vertex="1" parent="WIyWlLk6GJQsqaUBKTNV-1">
          <mxGeometry x="1460" y="430" width="100" height="80" as="geometry" />
        </mxCell>
        <mxCell id="EkAIFkrPFf19M-h8upW9-79" value="previo2.append( ) = previo1[ k ]" style="rounded=1;whiteSpace=wrap;html=1;fontSize=12;glass=0;strokeWidth=1;shadow=0;align=center;horizontal=1;verticalAlign=middle;arcSize=0;fontFamily=Helvetica;" vertex="1" parent="WIyWlLk6GJQsqaUBKTNV-1">
          <mxGeometry x="1210" y="575" width="140" height="40" as="geometry" />
        </mxCell>
        <mxCell id="TgdGyLAeBOjxs6yXoLCY-20" style="edgeStyle=orthogonalEdgeStyle;rounded=0;orthogonalLoop=1;jettySize=auto;html=1;" edge="1" parent="WIyWlLk6GJQsqaUBKTNV-1" source="EkAIFkrPFf19M-h8upW9-80">
          <mxGeometry relative="1" as="geometry">
            <mxPoint x="1280" y="790" as="targetPoint" />
            <Array as="points">
              <mxPoint x="1650" y="740" />
              <mxPoint x="1280" y="740" />
              <mxPoint x="1280" y="770" />
            </Array>
          </mxGeometry>
        </mxCell>
        <mxCell id="EkAIFkrPFf19M-h8upW9-80" value="previo2.append( ) = previo1[ k ]" style="rounded=1;whiteSpace=wrap;html=1;fontSize=12;glass=0;strokeWidth=1;shadow=0;align=center;horizontal=1;verticalAlign=middle;arcSize=0;fontFamily=Helvetica;" vertex="1" parent="WIyWlLk6GJQsqaUBKTNV-1">
          <mxGeometry x="1580" y="575" width="140" height="40" as="geometry" />
        </mxCell>
        <mxCell id="TgdGyLAeBOjxs6yXoLCY-25" style="edgeStyle=orthogonalEdgeStyle;rounded=0;orthogonalLoop=1;jettySize=auto;html=1;" edge="1" parent="WIyWlLk6GJQsqaUBKTNV-1" source="EkAIFkrPFf19M-h8upW9-81">
          <mxGeometry relative="1" as="geometry">
            <mxPoint x="1280" y="1190" as="targetPoint" />
            <Array as="points">
              <mxPoint x="1041" y="1190" />
              <mxPoint x="1281" y="1190" />
            </Array>
          </mxGeometry>
        </mxCell>
        <mxCell id="TgdGyLAeBOjxs6yXoLCY-31" style="edgeStyle=orthogonalEdgeStyle;rounded=0;orthogonalLoop=1;jettySize=auto;html=1;entryX=0;entryY=0.5;entryDx=0;entryDy=0;" edge="1" parent="WIyWlLk6GJQsqaUBKTNV-1" source="EkAIFkrPFf19M-h8upW9-81" target="EkAIFkrPFf19M-h8upW9-83">
          <mxGeometry relative="1" as="geometry">
            <mxPoint x="1180" y="950" as="targetPoint" />
            <Array as="points">
              <mxPoint x="1041" y="950" />
            </Array>
          </mxGeometry>
        </mxCell>
        <mxCell id="EkAIFkrPFf19M-h8upW9-81" value="&lt;div&gt;j&lt;/div&gt;&lt;div&gt;range(previo2)&lt;/div&gt;" style="shape=lineEllipse;perimeter=ellipsePerimeter;whiteSpace=wrap;html=1;backgroundOutline=1;" vertex="1" parent="WIyWlLk6GJQsqaUBKTNV-1">
          <mxGeometry x="991" y="1045" width="100" height="80" as="geometry" />
        </mxCell>
        <mxCell id="EkAIFkrPFf19M-h8upW9-82" style="edgeStyle=orthogonalEdgeStyle;rounded=0;orthogonalLoop=1;jettySize=auto;html=1;" edge="1" parent="WIyWlLk6GJQsqaUBKTNV-1" source="EkAIFkrPFf19M-h8upW9-83" target="EkAIFkrPFf19M-h8upW9-84">
          <mxGeometry relative="1" as="geometry">
            <mxPoint x="1320" y="1035" as="targetPoint" />
          </mxGeometry>
        </mxCell>
        <mxCell id="TgdGyLAeBOjxs6yXoLCY-53" value="Sí" style="edgeLabel;html=1;align=center;verticalAlign=middle;resizable=0;points=[];" connectable="0" vertex="1" parent="EkAIFkrPFf19M-h8upW9-82">
          <mxGeometry x="-0.16" y="-4" relative="1" as="geometry">
            <mxPoint as="offset" />
          </mxGeometry>
        </mxCell>
        <mxCell id="TgdGyLAeBOjxs6yXoLCY-29" style="edgeStyle=orthogonalEdgeStyle;rounded=0;orthogonalLoop=1;jettySize=auto;html=1;" edge="1" parent="WIyWlLk6GJQsqaUBKTNV-1" source="EkAIFkrPFf19M-h8upW9-83">
          <mxGeometry relative="1" as="geometry">
            <mxPoint x="1280" y="1190" as="targetPoint" />
            <Array as="points">
              <mxPoint x="1440" y="950" />
              <mxPoint x="1440" y="1190" />
            </Array>
          </mxGeometry>
        </mxCell>
        <mxCell id="TgdGyLAeBOjxs6yXoLCY-52" value="No" style="edgeLabel;html=1;align=center;verticalAlign=middle;resizable=0;points=[];" connectable="0" vertex="1" parent="TgdGyLAeBOjxs6yXoLCY-29">
          <mxGeometry x="-0.8979" y="2" relative="1" as="geometry">
            <mxPoint as="offset" />
          </mxGeometry>
        </mxCell>
        <mxCell id="EkAIFkrPFf19M-h8upW9-83" value="previo2[ j ][calificacion] &amp;gt;= calificacion_max1" style="rhombus;whiteSpace=wrap;html=1;shadow=0;fontFamily=Helvetica;fontSize=12;align=center;strokeWidth=1;spacing=6;spacingTop=-4;" vertex="1" parent="WIyWlLk6GJQsqaUBKTNV-1">
          <mxGeometry x="1190" y="900" width="180" height="100" as="geometry" />
        </mxCell>
        <mxCell id="TgdGyLAeBOjxs6yXoLCY-30" style="edgeStyle=orthogonalEdgeStyle;rounded=0;orthogonalLoop=1;jettySize=auto;html=1;entryX=0.5;entryY=0;entryDx=0;entryDy=0;" edge="1" parent="WIyWlLk6GJQsqaUBKTNV-1" source="EkAIFkrPFf19M-h8upW9-84" target="lCEtCi5H9xzjsfPwbuI6-0">
          <mxGeometry relative="1" as="geometry" />
        </mxCell>
        <mxCell id="EkAIFkrPFf19M-h8upW9-84" value="calificacion_max1 = previo2[ j ][calificacion]&lt;br&gt;ID_calificacion_1 = previo2[ j ][ID]" style="rounded=1;whiteSpace=wrap;html=1;fontSize=12;glass=0;strokeWidth=1;shadow=0;align=center;horizontal=1;verticalAlign=middle;arcSize=0;fontFamily=Helvetica;" vertex="1" parent="WIyWlLk6GJQsqaUBKTNV-1">
          <mxGeometry x="1210" y="1050" width="140" height="70" as="geometry" />
        </mxCell>
        <mxCell id="TgdGyLAeBOjxs6yXoLCY-21" style="edgeStyle=orthogonalEdgeStyle;rounded=0;orthogonalLoop=1;jettySize=auto;html=1;entryX=0.5;entryY=0;entryDx=0;entryDy=0;" edge="1" parent="WIyWlLk6GJQsqaUBKTNV-1" source="EkAIFkrPFf19M-h8upW9-85" target="EkAIFkrPFf19M-h8upW9-83">
          <mxGeometry relative="1" as="geometry" />
        </mxCell>
        <mxCell id="EkAIFkrPFf19M-h8upW9-85" value="Crear variables:&lt;br&gt;1) calificacion_max1&lt;br&gt;1) calificacion_max2&lt;br&gt;1) calificacion_max3" style="rounded=1;whiteSpace=wrap;html=1;fontSize=12;glass=0;strokeWidth=1;shadow=0;align=center;horizontal=1;verticalAlign=middle;arcSize=0;fontFamily=Helvetica;" vertex="1" parent="WIyWlLk6GJQsqaUBKTNV-1">
          <mxGeometry x="1210" y="790" width="140" height="60" as="geometry" />
        </mxCell>
        <mxCell id="TgdGyLAeBOjxs6yXoLCY-35" style="edgeStyle=orthogonalEdgeStyle;rounded=0;orthogonalLoop=1;jettySize=auto;html=1;" edge="1" parent="WIyWlLk6GJQsqaUBKTNV-1" source="EkAIFkrPFf19M-h8upW9-86">
          <mxGeometry relative="1" as="geometry">
            <mxPoint x="1280" y="1220" as="targetPoint" />
            <Array as="points">
              <mxPoint x="1041" y="1220" />
            </Array>
          </mxGeometry>
        </mxCell>
        <mxCell id="TgdGyLAeBOjxs6yXoLCY-36" style="edgeStyle=orthogonalEdgeStyle;rounded=0;orthogonalLoop=1;jettySize=auto;html=1;" edge="1" parent="WIyWlLk6GJQsqaUBKTNV-1" target="EkAIFkrPFf19M-h8upW9-86">
          <mxGeometry relative="1" as="geometry">
            <mxPoint x="1280" y="1680" as="sourcePoint" />
            <Array as="points">
              <mxPoint x="1081" y="1680" />
              <mxPoint x="1041" y="1680" />
            </Array>
          </mxGeometry>
        </mxCell>
        <mxCell id="EkAIFkrPFf19M-h8upW9-86" value="&lt;div&gt;m&lt;/div&gt;&lt;div&gt;range(previo2)&lt;/div&gt;" style="shape=lineEllipse;perimeter=ellipsePerimeter;whiteSpace=wrap;html=1;backgroundOutline=1;" vertex="1" parent="WIyWlLk6GJQsqaUBKTNV-1">
          <mxGeometry x="991" y="1380" width="100" height="80" as="geometry" />
        </mxCell>
        <mxCell id="EkAIFkrPFf19M-h8upW9-87" style="edgeStyle=orthogonalEdgeStyle;rounded=0;orthogonalLoop=1;jettySize=auto;html=1;entryX=0.5;entryY=0;entryDx=0;entryDy=0;" edge="1" parent="WIyWlLk6GJQsqaUBKTNV-1" source="EkAIFkrPFf19M-h8upW9-88" target="lCEtCi5H9xzjsfPwbuI6-1">
          <mxGeometry relative="1" as="geometry">
            <mxPoint x="1340" y="1495" as="targetPoint" />
          </mxGeometry>
        </mxCell>
        <mxCell id="TgdGyLAeBOjxs6yXoLCY-55" value="Sí" style="edgeLabel;html=1;align=center;verticalAlign=middle;resizable=0;points=[];" connectable="0" vertex="1" parent="EkAIFkrPFf19M-h8upW9-87">
          <mxGeometry x="0.0986" y="-1" relative="1" as="geometry">
            <mxPoint as="offset" />
          </mxGeometry>
        </mxCell>
        <mxCell id="TgdGyLAeBOjxs6yXoLCY-33" style="edgeStyle=orthogonalEdgeStyle;rounded=0;orthogonalLoop=1;jettySize=auto;html=1;" edge="1" parent="WIyWlLk6GJQsqaUBKTNV-1" source="EkAIFkrPFf19M-h8upW9-88">
          <mxGeometry relative="1" as="geometry">
            <mxPoint x="1520" y="1419" as="targetPoint" />
          </mxGeometry>
        </mxCell>
        <mxCell id="TgdGyLAeBOjxs6yXoLCY-47" value="No" style="edgeLabel;html=1;align=center;verticalAlign=middle;resizable=0;points=[];" connectable="0" vertex="1" parent="TgdGyLAeBOjxs6yXoLCY-33">
          <mxGeometry x="0.0041" relative="1" as="geometry">
            <mxPoint y="1" as="offset" />
          </mxGeometry>
        </mxCell>
        <mxCell id="EkAIFkrPFf19M-h8upW9-88" value="previo2[ m ][calificacion] &amp;gt;= calificacion_max2" style="rhombus;whiteSpace=wrap;html=1;shadow=0;fontFamily=Helvetica;fontSize=12;align=center;strokeWidth=1;spacing=6;spacingTop=-4;" vertex="1" parent="WIyWlLk6GJQsqaUBKTNV-1">
          <mxGeometry x="1160" y="1379" width="240" height="80" as="geometry" />
        </mxCell>
        <mxCell id="TgdGyLAeBOjxs6yXoLCY-32" style="edgeStyle=orthogonalEdgeStyle;rounded=0;orthogonalLoop=1;jettySize=auto;html=1;" edge="1" parent="WIyWlLk6GJQsqaUBKTNV-1" source="lCEtCi5H9xzjsfPwbuI6-0">
          <mxGeometry relative="1" as="geometry">
            <mxPoint x="1280" y="1680" as="targetPoint" />
            <Array as="points">
              <mxPoint x="1520" y="1290" />
              <mxPoint x="1520" y="1680" />
            </Array>
          </mxGeometry>
        </mxCell>
        <mxCell id="TgdGyLAeBOjxs6yXoLCY-46" value="No" style="edgeLabel;html=1;align=center;verticalAlign=middle;resizable=0;points=[];" connectable="0" vertex="1" parent="TgdGyLAeBOjxs6yXoLCY-32">
          <mxGeometry x="-0.759" y="-5" relative="1" as="geometry">
            <mxPoint as="offset" />
          </mxGeometry>
        </mxCell>
        <mxCell id="TgdGyLAeBOjxs6yXoLCY-37" style="edgeStyle=orthogonalEdgeStyle;rounded=0;orthogonalLoop=1;jettySize=auto;html=1;" edge="1" parent="WIyWlLk6GJQsqaUBKTNV-1" source="lCEtCi5H9xzjsfPwbuI6-0" target="EkAIFkrPFf19M-h8upW9-88">
          <mxGeometry relative="1" as="geometry" />
        </mxCell>
        <mxCell id="TgdGyLAeBOjxs6yXoLCY-54" value="Sí" style="edgeLabel;html=1;align=center;verticalAlign=middle;resizable=0;points=[];" connectable="0" vertex="1" parent="TgdGyLAeBOjxs6yXoLCY-37">
          <mxGeometry x="-0.2653" y="-1" relative="1" as="geometry">
            <mxPoint as="offset" />
          </mxGeometry>
        </mxCell>
        <mxCell id="lCEtCi5H9xzjsfPwbuI6-0" value="previo2[ m ][ID] != ID_calificacion_1" style="rhombus;whiteSpace=wrap;html=1;shadow=0;fontFamily=Helvetica;fontSize=12;align=center;strokeWidth=1;spacing=6;spacingTop=-4;" vertex="1" parent="WIyWlLk6GJQsqaUBKTNV-1">
          <mxGeometry x="1190" y="1250" width="180" height="80" as="geometry" />
        </mxCell>
        <mxCell id="TgdGyLAeBOjxs6yXoLCY-34" value="" style="edgeStyle=orthogonalEdgeStyle;rounded=0;orthogonalLoop=1;jettySize=auto;html=1;" edge="1" parent="WIyWlLk6GJQsqaUBKTNV-1" source="lCEtCi5H9xzjsfPwbuI6-1" target="lCEtCi5H9xzjsfPwbuI6-5">
          <mxGeometry relative="1" as="geometry" />
        </mxCell>
        <mxCell id="lCEtCi5H9xzjsfPwbuI6-1" value="calificacion_max2 = previo2[ m ][calificacion]&lt;br&gt;ID_calificacion_2 = previo2[ m ][ID]" style="rounded=1;whiteSpace=wrap;html=1;fontSize=12;glass=0;strokeWidth=1;shadow=0;align=center;horizontal=1;verticalAlign=middle;arcSize=0;fontFamily=Helvetica;" vertex="1" parent="WIyWlLk6GJQsqaUBKTNV-1">
          <mxGeometry x="1210" y="1530" width="140" height="70" as="geometry" />
        </mxCell>
        <mxCell id="TgdGyLAeBOjxs6yXoLCY-42" style="edgeStyle=orthogonalEdgeStyle;rounded=0;orthogonalLoop=1;jettySize=auto;html=1;" edge="1" parent="WIyWlLk6GJQsqaUBKTNV-1" source="lCEtCi5H9xzjsfPwbuI6-2">
          <mxGeometry relative="1" as="geometry">
            <mxPoint x="1280" y="1700" as="targetPoint" />
            <Array as="points">
              <mxPoint x="1050" y="1700" />
            </Array>
          </mxGeometry>
        </mxCell>
        <mxCell id="TgdGyLAeBOjxs6yXoLCY-45" style="edgeStyle=orthogonalEdgeStyle;rounded=0;orthogonalLoop=1;jettySize=auto;html=1;" edge="1" parent="WIyWlLk6GJQsqaUBKTNV-1" target="lCEtCi5H9xzjsfPwbuI6-2">
          <mxGeometry relative="1" as="geometry">
            <mxPoint x="1280" y="2110" as="sourcePoint" />
            <Array as="points">
              <mxPoint x="1050" y="2110" />
            </Array>
          </mxGeometry>
        </mxCell>
        <mxCell id="lCEtCi5H9xzjsfPwbuI6-2" value="&lt;div&gt;n&lt;/div&gt;&lt;div&gt;range(previo2)&lt;/div&gt;" style="shape=lineEllipse;perimeter=ellipsePerimeter;whiteSpace=wrap;html=1;backgroundOutline=1;" vertex="1" parent="WIyWlLk6GJQsqaUBKTNV-1">
          <mxGeometry x="1000" y="1880" width="100" height="80" as="geometry" />
        </mxCell>
        <mxCell id="TgdGyLAeBOjxs6yXoLCY-39" style="edgeStyle=orthogonalEdgeStyle;rounded=0;orthogonalLoop=1;jettySize=auto;html=1;" edge="1" parent="WIyWlLk6GJQsqaUBKTNV-1" source="lCEtCi5H9xzjsfPwbuI6-4">
          <mxGeometry relative="1" as="geometry">
            <mxPoint x="1520" y="1930" as="targetPoint" />
          </mxGeometry>
        </mxCell>
        <mxCell id="TgdGyLAeBOjxs6yXoLCY-58" value="No" style="edgeLabel;html=1;align=center;verticalAlign=middle;resizable=0;points=[];" connectable="0" vertex="1" parent="TgdGyLAeBOjxs6yXoLCY-39">
          <mxGeometry x="-0.1628" y="2" relative="1" as="geometry">
            <mxPoint as="offset" />
          </mxGeometry>
        </mxCell>
        <mxCell id="TgdGyLAeBOjxs6yXoLCY-41" style="edgeStyle=orthogonalEdgeStyle;rounded=0;orthogonalLoop=1;jettySize=auto;html=1;" edge="1" parent="WIyWlLk6GJQsqaUBKTNV-1" source="lCEtCi5H9xzjsfPwbuI6-4" target="lCEtCi5H9xzjsfPwbuI6-6">
          <mxGeometry relative="1" as="geometry" />
        </mxCell>
        <mxCell id="TgdGyLAeBOjxs6yXoLCY-59" value="Sí" style="edgeLabel;html=1;align=center;verticalAlign=middle;resizable=0;points=[];" connectable="0" vertex="1" parent="TgdGyLAeBOjxs6yXoLCY-41">
          <mxGeometry x="0.2" y="2" relative="1" as="geometry">
            <mxPoint as="offset" />
          </mxGeometry>
        </mxCell>
        <mxCell id="lCEtCi5H9xzjsfPwbuI6-4" value="previo2[ 2 ][calificacion] &amp;gt;= calificacion_max3" style="rhombus;whiteSpace=wrap;html=1;shadow=0;fontFamily=Helvetica;fontSize=12;align=center;strokeWidth=1;spacing=6;spacingTop=-4;" vertex="1" parent="WIyWlLk6GJQsqaUBKTNV-1">
          <mxGeometry x="1190" y="1900" width="180" height="80" as="geometry" />
        </mxCell>
        <mxCell id="TgdGyLAeBOjxs6yXoLCY-38" style="edgeStyle=orthogonalEdgeStyle;rounded=0;orthogonalLoop=1;jettySize=auto;html=1;" edge="1" parent="WIyWlLk6GJQsqaUBKTNV-1" source="lCEtCi5H9xzjsfPwbuI6-5">
          <mxGeometry relative="1" as="geometry">
            <mxPoint x="1280" y="2110" as="targetPoint" />
            <Array as="points">
              <mxPoint x="1520" y="1795" />
              <mxPoint x="1520" y="2110" />
            </Array>
          </mxGeometry>
        </mxCell>
        <mxCell id="TgdGyLAeBOjxs6yXoLCY-57" value="No" style="edgeLabel;html=1;align=center;verticalAlign=middle;resizable=0;points=[];" connectable="0" vertex="1" parent="TgdGyLAeBOjxs6yXoLCY-38">
          <mxGeometry x="-0.8746" y="-4" relative="1" as="geometry">
            <mxPoint as="offset" />
          </mxGeometry>
        </mxCell>
        <mxCell id="TgdGyLAeBOjxs6yXoLCY-40" style="edgeStyle=orthogonalEdgeStyle;rounded=0;orthogonalLoop=1;jettySize=auto;html=1;" edge="1" parent="WIyWlLk6GJQsqaUBKTNV-1" source="lCEtCi5H9xzjsfPwbuI6-5" target="lCEtCi5H9xzjsfPwbuI6-4">
          <mxGeometry relative="1" as="geometry" />
        </mxCell>
        <mxCell id="TgdGyLAeBOjxs6yXoLCY-56" value="Sí" style="edgeLabel;html=1;align=center;verticalAlign=middle;resizable=0;points=[];" connectable="0" vertex="1" parent="TgdGyLAeBOjxs6yXoLCY-40">
          <mxGeometry x="0.36" relative="1" as="geometry">
            <mxPoint as="offset" />
          </mxGeometry>
        </mxCell>
        <mxCell id="lCEtCi5H9xzjsfPwbuI6-5" value="previo2[ n ][ID] != ID_calificacion_1 AND previo2[ n ][ID] != ID_calificacion_2" style="rhombus;whiteSpace=wrap;html=1;shadow=0;fontFamily=Helvetica;fontSize=12;align=center;strokeWidth=1;spacing=6;spacingTop=-4;" vertex="1" parent="WIyWlLk6GJQsqaUBKTNV-1">
          <mxGeometry x="1155" y="1730" width="250" height="130" as="geometry" />
        </mxCell>
        <mxCell id="TgdGyLAeBOjxs6yXoLCY-43" style="edgeStyle=orthogonalEdgeStyle;rounded=0;orthogonalLoop=1;jettySize=auto;html=1;entryX=0.5;entryY=0;entryDx=0;entryDy=0;" edge="1" parent="WIyWlLk6GJQsqaUBKTNV-1" source="lCEtCi5H9xzjsfPwbuI6-6" target="lCEtCi5H9xzjsfPwbuI6-10">
          <mxGeometry relative="1" as="geometry" />
        </mxCell>
        <mxCell id="lCEtCi5H9xzjsfPwbuI6-6" value="calificacion_max3 = previo2[ n ][calificacion]&lt;br&gt;ID_calificacion_3 = previo2[ m ][ID]" style="rounded=1;whiteSpace=wrap;html=1;fontSize=12;glass=0;strokeWidth=1;shadow=0;align=center;horizontal=1;verticalAlign=middle;arcSize=0;fontFamily=Helvetica;" vertex="1" parent="WIyWlLk6GJQsqaUBKTNV-1">
          <mxGeometry x="1210" y="2010" width="140" height="70" as="geometry" />
        </mxCell>
        <mxCell id="TgdGyLAeBOjxs6yXoLCY-49" style="edgeStyle=orthogonalEdgeStyle;rounded=0;orthogonalLoop=1;jettySize=auto;html=1;" edge="1" parent="WIyWlLk6GJQsqaUBKTNV-1" target="lCEtCi5H9xzjsfPwbuI6-7">
          <mxGeometry relative="1" as="geometry">
            <mxPoint x="1280" y="2490" as="sourcePoint" />
            <Array as="points">
              <mxPoint x="1041" y="2490" />
            </Array>
          </mxGeometry>
        </mxCell>
        <mxCell id="TgdGyLAeBOjxs6yXoLCY-50" style="edgeStyle=orthogonalEdgeStyle;rounded=0;orthogonalLoop=1;jettySize=auto;html=1;" edge="1" parent="WIyWlLk6GJQsqaUBKTNV-1" source="lCEtCi5H9xzjsfPwbuI6-7">
          <mxGeometry relative="1" as="geometry">
            <mxPoint x="1280" y="2150" as="targetPoint" />
            <Array as="points">
              <mxPoint x="1041" y="2150" />
              <mxPoint x="1281" y="2150" />
            </Array>
          </mxGeometry>
        </mxCell>
        <mxCell id="lCEtCi5H9xzjsfPwbuI6-7" value="&lt;div&gt;f&lt;/div&gt;&lt;div&gt;range(previo2)&lt;/div&gt;" style="shape=lineEllipse;perimeter=ellipsePerimeter;whiteSpace=wrap;html=1;backgroundOutline=1;" vertex="1" parent="WIyWlLk6GJQsqaUBKTNV-1">
          <mxGeometry x="991" y="2215" width="100" height="80" as="geometry" />
        </mxCell>
        <mxCell id="TgdGyLAeBOjxs6yXoLCY-22" style="edgeStyle=orthogonalEdgeStyle;rounded=0;orthogonalLoop=1;jettySize=auto;html=1;" edge="1" parent="WIyWlLk6GJQsqaUBKTNV-1" source="lCEtCi5H9xzjsfPwbuI6-9" target="EkAIFkrPFf19M-h8upW9-5">
          <mxGeometry relative="1" as="geometry" />
        </mxCell>
        <mxCell id="lCEtCi5H9xzjsfPwbuI6-9" value="recomendaciones.append() = previo2[ f ][ID]&amp;nbsp;" style="rounded=1;whiteSpace=wrap;html=1;fontSize=12;glass=0;strokeWidth=1;shadow=0;align=center;horizontal=1;verticalAlign=middle;arcSize=0;fontFamily=Helvetica;" vertex="1" parent="WIyWlLk6GJQsqaUBKTNV-1">
          <mxGeometry x="1200" y="2380" width="160" height="70" as="geometry" />
        </mxCell>
        <mxCell id="TgdGyLAeBOjxs6yXoLCY-23" style="edgeStyle=orthogonalEdgeStyle;rounded=0;orthogonalLoop=1;jettySize=auto;html=1;entryX=0.5;entryY=0;entryDx=0;entryDy=0;" edge="1" parent="WIyWlLk6GJQsqaUBKTNV-1" source="lCEtCi5H9xzjsfPwbuI6-10" target="lCEtCi5H9xzjsfPwbuI6-9">
          <mxGeometry relative="1" as="geometry" />
        </mxCell>
        <mxCell id="TgdGyLAeBOjxs6yXoLCY-60" value="Sí" style="edgeLabel;html=1;align=center;verticalAlign=middle;resizable=0;points=[];" connectable="0" vertex="1" parent="TgdGyLAeBOjxs6yXoLCY-23">
          <mxGeometry x="-0.25" y="-1" relative="1" as="geometry">
            <mxPoint as="offset" />
          </mxGeometry>
        </mxCell>
        <mxCell id="TgdGyLAeBOjxs6yXoLCY-48" style="edgeStyle=orthogonalEdgeStyle;rounded=0;orthogonalLoop=1;jettySize=auto;html=1;" edge="1" parent="WIyWlLk6GJQsqaUBKTNV-1" source="lCEtCi5H9xzjsfPwbuI6-10">
          <mxGeometry relative="1" as="geometry">
            <mxPoint x="1280" y="2490" as="targetPoint" />
            <Array as="points">
              <mxPoint x="1520" y="2255" />
              <mxPoint x="1520" y="2490" />
            </Array>
          </mxGeometry>
        </mxCell>
        <mxCell id="TgdGyLAeBOjxs6yXoLCY-51" value="No" style="edgeLabel;html=1;align=center;verticalAlign=middle;resizable=0;points=[];" connectable="0" vertex="1" parent="TgdGyLAeBOjxs6yXoLCY-48">
          <mxGeometry x="-0.7809" y="-1" relative="1" as="geometry">
            <mxPoint as="offset" />
          </mxGeometry>
        </mxCell>
        <mxCell id="lCEtCi5H9xzjsfPwbuI6-10" value="previo2[ f ][ID] == ID_calificacion_1 OR&lt;br&gt;previo2[ f ][ID] == ID_calificacion_2 OR&lt;br&gt;previo2[ f ][ID] == ID_calificacion_3" style="rhombus;whiteSpace=wrap;html=1;shadow=0;fontFamily=Helvetica;fontSize=12;align=center;strokeWidth=1;spacing=6;spacingTop=-4;" vertex="1" parent="WIyWlLk6GJQsqaUBKTNV-1">
          <mxGeometry x="1140" y="2170" width="280" height="170" as="geometry" />
        </mxCell>
        <mxCell id="TgdGyLAeBOjxs6yXoLCY-9" style="edgeStyle=orthogonalEdgeStyle;rounded=0;orthogonalLoop=1;jettySize=auto;html=1;entryX=0.5;entryY=0;entryDx=0;entryDy=0;" edge="1" parent="WIyWlLk6GJQsqaUBKTNV-1" source="EkAIFkrPFf19M-h8upW9-79" target="EkAIFkrPFf19M-h8upW9-85">
          <mxGeometry relative="1" as="geometry">
            <mxPoint x="1280" y="750" as="targetPoint" />
            <Array as="points">
              <mxPoint x="1280" y="760" />
              <mxPoint x="1280" y="760" />
            </Array>
          </mxGeometry>
        </mxCell>
      </root>
    </mxGraphModel>
  </diagram>
  <diagram id="HXKrAv_-2MuuZnCNRui4" name="Diagrama Clases">
    <mxGraphModel grid="1" page="1" gridSize="10" guides="1" tooltips="1" connect="1" arrows="1" fold="1" pageScale="1" pageWidth="827" pageHeight="1169" math="0" shadow="0">
      <root>
        <mxCell id="0" />
        <mxCell id="1" parent="0" />
        <mxCell id="XT5whnJiHgiJKzgVMFFf-6" value="Resultado" style="swimlane;fontStyle=1;align=center;verticalAlign=top;childLayout=stackLayout;horizontal=1;startSize=26;horizontalStack=0;resizeParent=1;resizeParentMax=0;resizeLast=0;collapsible=1;marginBottom=0;whiteSpace=wrap;html=1;" vertex="1" parent="1">
          <mxGeometry x="760" y="720" width="200" height="160" as="geometry">
            <mxRectangle x="330" y="340" width="100" height="30" as="alternateBounds" />
          </mxGeometry>
        </mxCell>
        <mxCell id="XT5whnJiHgiJKzgVMFFf-7" value="recomendaciones: list&lt;div&gt;formato: int&lt;/div&gt;&lt;div&gt;cantidad propuestas:int&lt;/div&gt;" style="text;strokeColor=none;fillColor=none;align=left;verticalAlign=top;spacingLeft=4;spacingRight=4;overflow=hidden;rotatable=0;points=[[0,0.5],[1,0.5]];portConstraint=eastwest;whiteSpace=wrap;html=1;" vertex="1" parent="XT5whnJiHgiJKzgVMFFf-6">
          <mxGeometry y="26" width="200" height="54" as="geometry" />
        </mxCell>
        <mxCell id="XT5whnJiHgiJKzgVMFFf-8" value="" style="line;strokeWidth=1;fillColor=none;align=left;verticalAlign=middle;spacingTop=-1;spacingLeft=3;spacingRight=3;rotatable=0;labelPosition=right;points=[];portConstraint=eastwest;strokeColor=inherit;" vertex="1" parent="XT5whnJiHgiJKzgVMFFf-6">
          <mxGeometry y="80" width="200" height="10" as="geometry" />
        </mxCell>
        <mxCell id="XT5whnJiHgiJKzgVMFFf-9" value="mostrar resultados(): fun&lt;div&gt;mostrar resultados pelicula(): fun&lt;/div&gt;&lt;div&gt;mostrar resultados animacion(): fun&lt;br&gt;&lt;/div&gt;&lt;div&gt;mostrar resultados serie(): fun&lt;br&gt;&lt;/div&gt;&lt;div&gt;&lt;br&gt;&lt;/div&gt;" style="text;strokeColor=none;fillColor=none;align=left;verticalAlign=top;spacingLeft=4;spacingRight=4;overflow=hidden;rotatable=0;points=[[0,0.5],[1,0.5]];portConstraint=eastwest;whiteSpace=wrap;html=1;" vertex="1" parent="XT5whnJiHgiJKzgVMFFf-6">
          <mxGeometry y="90" width="200" height="70" as="geometry" />
        </mxCell>
        <mxCell id="XT5whnJiHgiJKzgVMFFf-10" value="Inventario" style="swimlane;fontStyle=1;align=center;verticalAlign=top;childLayout=stackLayout;horizontal=1;startSize=26;horizontalStack=0;resizeParent=1;resizeParentMax=0;resizeLast=0;collapsible=1;marginBottom=0;whiteSpace=wrap;html=1;" vertex="1" parent="1">
          <mxGeometry x="480" y="400" width="160" height="160" as="geometry">
            <mxRectangle x="160" y="177" width="100" height="30" as="alternateBounds" />
          </mxGeometry>
        </mxCell>
        <mxCell id="XT5whnJiHgiJKzgVMFFf-11" value="&lt;div&gt;archivo peliculas: str&lt;/div&gt;&lt;div&gt;&lt;span style=&quot;background-color: initial;&quot;&gt;archivo animaciones: str&lt;/span&gt;&lt;/div&gt;&lt;div&gt;archivo series: str&lt;span style=&quot;background-color: initial;&quot;&gt;&lt;br&gt;&lt;/span&gt;&lt;/div&gt;&lt;div&gt;&lt;br&gt;&lt;/div&gt;" style="text;strokeColor=none;fillColor=none;align=left;verticalAlign=top;spacingLeft=4;spacingRight=4;overflow=hidden;rotatable=0;points=[[0,0.5],[1,0.5]];portConstraint=eastwest;whiteSpace=wrap;html=1;" vertex="1" parent="XT5whnJiHgiJKzgVMFFf-10">
          <mxGeometry y="26" width="160" height="54" as="geometry" />
        </mxCell>
        <mxCell id="XT5whnJiHgiJKzgVMFFf-12" value="" style="line;strokeWidth=1;fillColor=none;align=left;verticalAlign=middle;spacingTop=-1;spacingLeft=3;spacingRight=3;rotatable=0;labelPosition=right;points=[];portConstraint=eastwest;strokeColor=inherit;" vertex="1" parent="XT5whnJiHgiJKzgVMFFf-10">
          <mxGeometry y="80" width="160" height="8" as="geometry" />
        </mxCell>
        <mxCell id="XT5whnJiHgiJKzgVMFFf-13" value="buscar(list): fun&lt;div&gt;buscar peliculas(): list&lt;/div&gt;&lt;div&gt;buscar animaciones(): list&lt;br&gt;&lt;/div&gt;&lt;div&gt;buscar series(): list&lt;br&gt;&lt;/div&gt;" style="text;strokeColor=none;fillColor=none;align=left;verticalAlign=top;spacingLeft=4;spacingRight=4;overflow=hidden;rotatable=0;points=[[0,0.5],[1,0.5]];portConstraint=eastwest;whiteSpace=wrap;html=1;" vertex="1" parent="XT5whnJiHgiJKzgVMFFf-10">
          <mxGeometry y="88" width="160" height="72" as="geometry" />
        </mxCell>
        <mxCell id="QvLhKa7evq5dMJx2mnsr-10" value="" style="endArrow=block;endFill=0;endSize=12;html=1;rounded=0;exitX=0.5;exitY=0;exitDx=0;exitDy=0;entryX=0.256;entryY=1.016;entryDx=0;entryDy=0;entryPerimeter=0;" edge="1" parent="1" source="QvLhKa7evq5dMJx2mnsr-37" target="QvLhKa7evq5dMJx2mnsr-36">
          <mxGeometry width="160" relative="1" as="geometry">
            <mxPoint x="178.96000000000004" y="1050.33" as="sourcePoint" />
            <mxPoint x="250" y="690" as="targetPoint" />
          </mxGeometry>
        </mxCell>
        <mxCell id="QvLhKa7evq5dMJx2mnsr-11" value="" style="endArrow=block;endFill=0;endSize=12;html=1;rounded=0;exitX=0.5;exitY=0;exitDx=0;exitDy=0;entryX=0.506;entryY=1.032;entryDx=0;entryDy=0;entryPerimeter=0;" edge="1" parent="1" source="QvLhKa7evq5dMJx2mnsr-41" target="QvLhKa7evq5dMJx2mnsr-36">
          <mxGeometry width="160" relative="1" as="geometry">
            <mxPoint x="460" y="1010" as="sourcePoint" />
            <mxPoint x="290" y="690" as="targetPoint" />
          </mxGeometry>
        </mxCell>
        <mxCell id="QvLhKa7evq5dMJx2mnsr-12" value="" style="endArrow=block;endFill=0;endSize=12;html=1;rounded=0;exitX=0.5;exitY=0;exitDx=0;exitDy=0;entryX=0.781;entryY=1.048;entryDx=0;entryDy=0;entryPerimeter=0;" edge="1" parent="1" source="QvLhKa7evq5dMJx2mnsr-45" target="QvLhKa7evq5dMJx2mnsr-36">
          <mxGeometry width="160" relative="1" as="geometry">
            <mxPoint x="640" y="1010" as="sourcePoint" />
            <mxPoint x="330" y="690" as="targetPoint" />
          </mxGeometry>
        </mxCell>
        <mxCell id="QvLhKa7evq5dMJx2mnsr-14" value="Main" style="swimlane;fontStyle=1;align=center;verticalAlign=top;childLayout=stackLayout;horizontal=1;startSize=26;horizontalStack=0;resizeParent=1;resizeParentMax=0;resizeLast=0;collapsible=1;marginBottom=0;whiteSpace=wrap;html=1;" vertex="1" parent="1">
          <mxGeometry x="760" y="400" width="160" height="280" as="geometry" />
        </mxCell>
        <mxCell id="QvLhKa7evq5dMJx2mnsr-15" value="archivo peliculas: str&lt;div&gt;archivo animaciones: str&lt;/div&gt;&lt;div&gt;archivo series: str&lt;/div&gt;&lt;div&gt;Inventario(str, str, str)&lt;/div&gt;&lt;div&gt;Pin diario: int&lt;/div&gt;&lt;div&gt;operacion: int&lt;/div&gt;&lt;div&gt;genero: int&lt;/div&gt;&lt;div&gt;tipo artista: int&lt;/div&gt;&lt;div&gt;eleccion: int&lt;/div&gt;&lt;div&gt;artista: str&lt;/div&gt;&lt;div&gt;criterios: list&lt;/div&gt;&lt;div&gt;&lt;br&gt;&lt;/div&gt;" style="text;strokeColor=none;fillColor=none;align=left;verticalAlign=top;spacingLeft=4;spacingRight=4;overflow=hidden;rotatable=0;points=[[0,0.5],[1,0.5]];portConstraint=eastwest;whiteSpace=wrap;html=1;" vertex="1" parent="QvLhKa7evq5dMJx2mnsr-14">
          <mxGeometry y="26" width="160" height="174" as="geometry" />
        </mxCell>
        <mxCell id="QvLhKa7evq5dMJx2mnsr-16" value="" style="line;strokeWidth=1;fillColor=none;align=left;verticalAlign=middle;spacingTop=-1;spacingLeft=3;spacingRight=3;rotatable=0;labelPosition=right;points=[];portConstraint=eastwest;strokeColor=inherit;" vertex="1" parent="QvLhKa7evq5dMJx2mnsr-14">
          <mxGeometry y="200" width="160" height="8" as="geometry" />
        </mxCell>
        <mxCell id="QvLhKa7evq5dMJx2mnsr-17" value="iniciar(): fun&lt;div&gt;operar(): fun&lt;/div&gt;&lt;div&gt;recolectar criterios(int): fun&lt;/div&gt;&lt;div&gt;terminar(): fun&amp;nbsp;&lt;/div&gt;" style="text;strokeColor=none;fillColor=none;align=left;verticalAlign=top;spacingLeft=4;spacingRight=4;overflow=hidden;rotatable=0;points=[[0,0.5],[1,0.5]];portConstraint=eastwest;whiteSpace=wrap;html=1;" vertex="1" parent="QvLhKa7evq5dMJx2mnsr-14">
          <mxGeometry y="208" width="160" height="72" as="geometry" />
        </mxCell>
        <mxCell id="QvLhKa7evq5dMJx2mnsr-18" value="" style="endArrow=diamondThin;endFill=0;endSize=24;html=1;rounded=0;exitX=1;exitY=0.5;exitDx=0;exitDy=0;entryX=-0.012;entryY=0.174;entryDx=0;entryDy=0;entryPerimeter=0;" edge="1" parent="1" source="XT5whnJiHgiJKzgVMFFf-11" target="QvLhKa7evq5dMJx2mnsr-15">
          <mxGeometry width="160" relative="1" as="geometry">
            <mxPoint x="720" y="439.5" as="sourcePoint" />
            <mxPoint x="880" y="439.5" as="targetPoint" />
          </mxGeometry>
        </mxCell>
        <mxCell id="QvLhKa7evq5dMJx2mnsr-20" value="" style="endArrow=none;html=1;rounded=0;exitX=0.5;exitY=0;exitDx=0;exitDy=0;entryX=0;entryY=0.5;entryDx=0;entryDy=0;" edge="1" parent="1" source="QvLhKa7evq5dMJx2mnsr-37" target="XT5whnJiHgiJKzgVMFFf-9">
          <mxGeometry width="50" height="50" relative="1" as="geometry">
            <mxPoint x="230" y="1050" as="sourcePoint" />
            <mxPoint x="910" y="778" as="targetPoint" />
          </mxGeometry>
        </mxCell>
        <mxCell id="QvLhKa7evq5dMJx2mnsr-21" value="" style="endArrow=none;html=1;rounded=0;exitX=0.5;exitY=0;exitDx=0;exitDy=0;entryX=0;entryY=0.5;entryDx=0;entryDy=0;" edge="1" parent="1" source="QvLhKa7evq5dMJx2mnsr-41" target="XT5whnJiHgiJKzgVMFFf-9">
          <mxGeometry width="50" height="50" relative="1" as="geometry">
            <mxPoint x="460" y="1010" as="sourcePoint" />
            <mxPoint x="921" y="782" as="targetPoint" />
          </mxGeometry>
        </mxCell>
        <mxCell id="QvLhKa7evq5dMJx2mnsr-22" value="" style="endArrow=none;html=1;rounded=0;exitX=0.5;exitY=0;exitDx=0;exitDy=0;entryX=0;entryY=0.5;entryDx=0;entryDy=0;" edge="1" parent="1" source="QvLhKa7evq5dMJx2mnsr-45" target="XT5whnJiHgiJKzgVMFFf-9">
          <mxGeometry width="50" height="50" relative="1" as="geometry">
            <mxPoint x="652.96" y="1008.02" as="sourcePoint" />
            <mxPoint x="931" y="792" as="targetPoint" />
          </mxGeometry>
        </mxCell>
        <mxCell id="QvLhKa7evq5dMJx2mnsr-24" value="" style="endArrow=none;html=1;rounded=0;exitX=1;exitY=0.5;exitDx=0;exitDy=0;entryX=0;entryY=0.5;entryDx=0;entryDy=0;" edge="1" parent="1" source="XT5whnJiHgiJKzgVMFFf-13" target="XT5whnJiHgiJKzgVMFFf-7">
          <mxGeometry width="50" height="50" relative="1" as="geometry">
            <mxPoint x="290" y="1020" as="sourcePoint" />
            <mxPoint x="920" y="880" as="targetPoint" />
          </mxGeometry>
        </mxCell>
        <mxCell id="QvLhKa7evq5dMJx2mnsr-33" value="Producto" style="swimlane;fontStyle=1;align=center;verticalAlign=top;childLayout=stackLayout;horizontal=1;startSize=26;horizontalStack=0;resizeParent=1;resizeParentMax=0;resizeLast=0;collapsible=1;marginBottom=0;whiteSpace=wrap;html=1;" vertex="1" parent="1">
          <mxGeometry x="240" y="400" width="160" height="220" as="geometry" />
        </mxCell>
        <mxCell id="QvLhKa7evq5dMJx2mnsr-34" value="ID: str&lt;div&gt;titulo: str&lt;/div&gt;&lt;div&gt;anyo: str&lt;br&gt;&lt;div&gt;&lt;span style=&quot;background-color: initial;&quot;&gt;genero: str&lt;/span&gt;&lt;br&gt;&lt;/div&gt;&lt;div&gt;calificacion: str&lt;span style=&quot;background-color: initial;&quot;&gt;&lt;br&gt;&lt;/span&gt;&lt;/div&gt;&lt;div&gt;plataformas: str&lt;/div&gt;&lt;div&gt;diccionario generos: dict&lt;/div&gt;&lt;/div&gt;&lt;div&gt;diccionario plataformas: dict&lt;/div&gt;" style="text;strokeColor=none;fillColor=none;align=left;verticalAlign=top;spacingLeft=4;spacingRight=4;overflow=hidden;rotatable=0;points=[[0,0.5],[1,0.5]];portConstraint=eastwest;whiteSpace=wrap;html=1;" vertex="1" parent="QvLhKa7evq5dMJx2mnsr-33">
          <mxGeometry y="26" width="160" height="124" as="geometry" />
        </mxCell>
        <mxCell id="QvLhKa7evq5dMJx2mnsr-35" value="" style="line;strokeWidth=1;fillColor=none;align=left;verticalAlign=middle;spacingTop=-1;spacingLeft=3;spacingRight=3;rotatable=0;labelPosition=right;points=[];portConstraint=eastwest;strokeColor=inherit;" vertex="1" parent="QvLhKa7evq5dMJx2mnsr-33">
          <mxGeometry y="150" width="160" height="8" as="geometry" />
        </mxCell>
        <mxCell id="QvLhKa7evq5dMJx2mnsr-36" value="definir genero(): fun&lt;div&gt;definir plataforma(): fun&lt;/div&gt;&lt;div&gt;mostrar detalles(): fun&lt;/div&gt;" style="text;strokeColor=none;fillColor=none;align=left;verticalAlign=top;spacingLeft=4;spacingRight=4;overflow=hidden;rotatable=0;points=[[0,0.5],[1,0.5]];portConstraint=eastwest;whiteSpace=wrap;html=1;" vertex="1" parent="QvLhKa7evq5dMJx2mnsr-33">
          <mxGeometry y="158" width="160" height="62" as="geometry" />
        </mxCell>
        <mxCell id="QvLhKa7evq5dMJx2mnsr-37" value="Pelicula" style="swimlane;fontStyle=1;align=center;verticalAlign=top;childLayout=stackLayout;horizontal=1;startSize=26;horizontalStack=0;resizeParent=1;resizeParentMax=0;resizeLast=0;collapsible=1;marginBottom=0;whiteSpace=wrap;html=1;" vertex="1" parent="1">
          <mxGeometry x="240" y="920" width="160" height="150" as="geometry" />
        </mxCell>
        <mxCell id="QvLhKa7evq5dMJx2mnsr-38" value="director: str&lt;div&gt;actor 1: str&lt;/div&gt;&lt;div&gt;actor 2: str&lt;/div&gt;&lt;div&gt;duracion: str&lt;/div&gt;" style="text;strokeColor=none;fillColor=none;align=left;verticalAlign=top;spacingLeft=4;spacingRight=4;overflow=hidden;rotatable=0;points=[[0,0.5],[1,0.5]];portConstraint=eastwest;whiteSpace=wrap;html=1;" vertex="1" parent="QvLhKa7evq5dMJx2mnsr-37">
          <mxGeometry y="26" width="160" height="64" as="geometry" />
        </mxCell>
        <mxCell id="QvLhKa7evq5dMJx2mnsr-39" value="" style="line;strokeWidth=1;fillColor=none;align=left;verticalAlign=middle;spacingTop=-1;spacingLeft=3;spacingRight=3;rotatable=0;labelPosition=right;points=[];portConstraint=eastwest;strokeColor=inherit;" vertex="1" parent="QvLhKa7evq5dMJx2mnsr-37">
          <mxGeometry y="90" width="160" height="8" as="geometry" />
        </mxCell>
        <mxCell id="QvLhKa7evq5dMJx2mnsr-40" value="definir genero(): str&lt;div&gt;definir plataformas(): str&lt;/div&gt;&lt;div&gt;mostrar detalles(): fun&lt;/div&gt;" style="text;strokeColor=none;fillColor=none;align=left;verticalAlign=top;spacingLeft=4;spacingRight=4;overflow=hidden;rotatable=0;points=[[0,0.5],[1,0.5]];portConstraint=eastwest;whiteSpace=wrap;html=1;" vertex="1" parent="QvLhKa7evq5dMJx2mnsr-37">
          <mxGeometry y="98" width="160" height="52" as="geometry" />
        </mxCell>
        <mxCell id="QvLhKa7evq5dMJx2mnsr-41" value="Animacion" style="swimlane;fontStyle=1;align=center;verticalAlign=top;childLayout=stackLayout;horizontal=1;startSize=26;horizontalStack=0;resizeParent=1;resizeParentMax=0;resizeLast=0;collapsible=1;marginBottom=0;whiteSpace=wrap;html=1;" vertex="1" parent="1">
          <mxGeometry x="440" y="920" width="160" height="120" as="geometry" />
        </mxCell>
        <mxCell id="QvLhKa7evq5dMJx2mnsr-42" value="studio: str&lt;div&gt;duracion: str&lt;/div&gt;" style="text;strokeColor=none;fillColor=none;align=left;verticalAlign=top;spacingLeft=4;spacingRight=4;overflow=hidden;rotatable=0;points=[[0,0.5],[1,0.5]];portConstraint=eastwest;whiteSpace=wrap;html=1;" vertex="1" parent="QvLhKa7evq5dMJx2mnsr-41">
          <mxGeometry y="26" width="160" height="34" as="geometry" />
        </mxCell>
        <mxCell id="QvLhKa7evq5dMJx2mnsr-43" value="" style="line;strokeWidth=1;fillColor=none;align=left;verticalAlign=middle;spacingTop=-1;spacingLeft=3;spacingRight=3;rotatable=0;labelPosition=right;points=[];portConstraint=eastwest;strokeColor=inherit;" vertex="1" parent="QvLhKa7evq5dMJx2mnsr-41">
          <mxGeometry y="60" width="160" height="8" as="geometry" />
        </mxCell>
        <mxCell id="QvLhKa7evq5dMJx2mnsr-44" value="definir genero(): str&lt;div&gt;definir plataformas(): str&lt;/div&gt;&lt;div&gt;mostrar detalles(): fun&lt;/div&gt;" style="text;strokeColor=none;fillColor=none;align=left;verticalAlign=top;spacingLeft=4;spacingRight=4;overflow=hidden;rotatable=0;points=[[0,0.5],[1,0.5]];portConstraint=eastwest;whiteSpace=wrap;html=1;" vertex="1" parent="QvLhKa7evq5dMJx2mnsr-41">
          <mxGeometry y="68" width="160" height="52" as="geometry" />
        </mxCell>
        <mxCell id="QvLhKa7evq5dMJx2mnsr-45" value="Serie" style="swimlane;fontStyle=1;align=center;verticalAlign=top;childLayout=stackLayout;horizontal=1;startSize=26;horizontalStack=0;resizeParent=1;resizeParentMax=0;resizeLast=0;collapsible=1;marginBottom=0;whiteSpace=wrap;html=1;" vertex="1" parent="1">
          <mxGeometry x="640" y="920" width="160" height="140" as="geometry" />
        </mxCell>
        <mxCell id="QvLhKa7evq5dMJx2mnsr-46" value="&lt;div&gt;actor 1: str&lt;/div&gt;&lt;div&gt;actor 2: str&lt;/div&gt;&lt;div&gt;num temporadas: str&lt;/div&gt;" style="text;strokeColor=none;fillColor=none;align=left;verticalAlign=top;spacingLeft=4;spacingRight=4;overflow=hidden;rotatable=0;points=[[0,0.5],[1,0.5]];portConstraint=eastwest;whiteSpace=wrap;html=1;" vertex="1" parent="QvLhKa7evq5dMJx2mnsr-45">
          <mxGeometry y="26" width="160" height="54" as="geometry" />
        </mxCell>
        <mxCell id="QvLhKa7evq5dMJx2mnsr-47" value="" style="line;strokeWidth=1;fillColor=none;align=left;verticalAlign=middle;spacingTop=-1;spacingLeft=3;spacingRight=3;rotatable=0;labelPosition=right;points=[];portConstraint=eastwest;strokeColor=inherit;" vertex="1" parent="QvLhKa7evq5dMJx2mnsr-45">
          <mxGeometry y="80" width="160" height="8" as="geometry" />
        </mxCell>
        <mxCell id="QvLhKa7evq5dMJx2mnsr-48" value="definir genero(): str&lt;div&gt;definir plataformas(): str&lt;/div&gt;&lt;div&gt;mostrar detalles(): fun&lt;/div&gt;" style="text;strokeColor=none;fillColor=none;align=left;verticalAlign=top;spacingLeft=4;spacingRight=4;overflow=hidden;rotatable=0;points=[[0,0.5],[1,0.5]];portConstraint=eastwest;whiteSpace=wrap;html=1;" vertex="1" parent="QvLhKa7evq5dMJx2mnsr-45">
          <mxGeometry y="88" width="160" height="52" as="geometry" />
        </mxCell>
      </root>
    </mxGraphModel>
  </diagram>
</mxfile>
